<svg xmlns="http://www.w3.org/2000/svg" xmlns:xlink="http://www.w3.org/1999/xlink" viewBox="0 0 407.54 76.32">
  <defs>
    <style>
      .cls-1 {
        fill: gray;
      }

      .cls-2 {
        fill: #4d4d4d;
      }

      .cls-3 {
        fill: url(#gradient);
      }

      .cls-4 {
        fill: #fff;
      }
    </style>
    <radialGradient id="gradient" data-name="Dégradé" cx="37" cy="71" r="37" gradientTransform="matrix(1, 0, 0, -1, 0, 108)" gradientUnits="userSpaceOnUse">
      <stop offset="0" stop-color="#fff"/>
      <stop offset="1" stop-color="#488b9b"/>
    </radialGradient>
  </defs>
  <title>digestscience-logo-simple</title>
  <g id="logo" data-name="logo">
    <g id="science">
      <g>
        <path class="cls-1" d="M252.67,64.28c-6.57,0-10.65-1.8-14.68-5.82l2.35-2.35c4,4,7.19,5.2,12.51,5.2,6.94,0,11.33-3.35,11.33-9.1a8,8,0,0,0-2.41-6.2c-1.61-1.36-2.79-1.79-6.38-2.35l-5.14-.81a15.16,15.16,0,0,1-7.86-3.22,10,10,0,0,1-3.47-8.11c0-7.37,5.26-12.07,13.69-12.07a17.4,17.4,0,0,1,12.69,4.77l-2.17,2.16a14.34,14.34,0,0,0-10.71-4.08c-6.38,0-10.22,3.53-10.22,9.1a7.09,7.09,0,0,0,2.29,5.76,14.1,14.1,0,0,0,6.57,2.72l4.77.75c4.14.62,6,1.36,7.86,2.91a10.83,10.83,0,0,1,3.84,8.54C267.53,59.51,261.83,64.28,252.67,64.28Z"/>
        <path class="cls-1" d="M282.39,64.28c-8.11,0-13.13-5.82-13.13-15.29s5-15.3,13.13-15.3c4.09,0,6.62,1.05,9.85,4.58l-2.17,2c-2.54-2.84-4.52-3.77-7.68-3.77a9.24,9.24,0,0,0-7.93,4c-1.48,2.17-2,4.52-2,8.55s.56,6.37,2,8.54a9.24,9.24,0,0,0,7.93,4c3.16,0,5.14-.93,7.68-3.77l2.17,2C289,63.23,286.48,64.28,282.39,64.28Z"/>
        <path class="cls-1" d="M297,23.72v-3.9h3.9v3.9Zm.37,40.19V34.06h3.16V63.91Z"/>
        <path class="cls-1" d="M308.73,49.67c0,7.55,3.41,11.76,9.73,11.76a10.23,10.23,0,0,0,8.23-3.59L329,59.7c-3,3-5.82,4.58-10.77,4.58C310,64.28,305.58,59,305.58,49c0-9.6,4.45-15.3,11.95-15.3s12,5.45,12,14.55v1.43Zm16.54-8.18a8.48,8.48,0,0,0-15.48,0,14,14,0,0,0-1.06,5.64h17.59a13.82,13.82,0,0,0-1.05-5.64Z"/>
        <path class="cls-1" d="M353.32,63.91V45.39c0-5.76-2.91-8.91-8.24-8.91s-8.42,3.28-8.42,8.91V63.91H333.5V34.06h3.16v3.53a12.13,12.13,0,0,1,16.72-1.05,11.26,11.26,0,0,1,3.09,8.3V63.91Z"/>
        <path class="cls-1" d="M373.32,64.28c-8.11,0-13.13-5.82-13.13-15.29s5-15.3,13.13-15.3c4.08,0,6.62,1.05,9.84,4.58l-2.16,2c-2.54-2.84-4.52-3.77-7.68-3.77a9.24,9.24,0,0,0-7.93,4c-1.48,2.17-2,4.52-2,8.55s.56,6.37,2,8.54a9.24,9.24,0,0,0,7.93,4c3.16,0,5.14-.93,7.68-3.77l2.16,2C379.94,63.23,377.4,64.28,373.32,64.28Z"/>
        <path class="cls-1" d="M386.75,49.67c0,7.55,3.4,11.76,9.72,11.76,3.53,0,5.69-1,8.23-3.59l2.36,1.86c-3,3-5.83,4.58-10.78,4.58-8.23,0-12.69-5.33-12.69-15.29,0-9.6,4.46-15.3,12-15.3s12,5.45,12,14.55v1.43Zm16.53-8.18a8.48,8.48,0,0,0-15.48,0,13.79,13.79,0,0,0-1.05,5.64h17.58A13.82,13.82,0,0,0,403.28,41.49Z"/>
      </g>
    </g>
    <g id="digest">
      <g>
        <path class="cls-2" d="M111.71,59.91c-2.91,2.91-7.06,4.21-11.64,4.21H84.16V20h15.91c4.58,0,8.73,1.3,11.64,4.21,5,5,4.46,11,4.46,17.65S116.67,55,111.71,59.91Zm-6-29.48a7.73,7.73,0,0,0-6.44-2.72h-6.5V56.44h6.5a7.73,7.73,0,0,0,6.44-2.72c1.61-2,1.85-5.14,1.85-11.83S107.32,32.41,105.71,30.43Z"/>
        <path class="cls-2" d="M120.51,26.35V19.78h8.23v6.57Zm.12,37.77V31.86h8.05V64.12Z"/>
        <path class="cls-2" d="M145.09,76.32c-5,0-8.36-1-11.7-4.21l5-5.08a8.22,8.22,0,0,0,6.32,2.48c4.83,0,6.5-3.41,6.5-6.69V59.54a9.48,9.48,0,0,1-7.68,3.22,10.77,10.77,0,0,1-7.68-2.85c-3-3-3.28-7.18-3.28-12.82s.25-9.72,3.28-12.76a10.94,10.94,0,0,1,7.74-2.84,9.44,9.44,0,0,1,7.87,3.4v-3h7.8V62.94C159.27,70.68,153.76,76.32,145.09,76.32Zm.8-37.59c-4.76,0-5.26,4.09-5.26,8.36s.5,8.42,5.26,8.42,5.33-4.15,5.33-8.42S150.66,38.73,145.89,38.73Z"/>
        <path class="cls-2" d="M170.91,50.5c0,4.15,2.54,7.18,7.06,7.18a9,9,0,0,0,7.31-3l4.89,4.76c-3.28,3.29-6.44,5.08-12.26,5.08C170.29,64.49,163,61,163,48c0-10.53,5.7-16.47,14.06-16.47,9,0,14.06,6.56,14.06,15.42V50.5Zm11.52-9a6,6,0,0,0-10.78,0,8.86,8.86,0,0,0-.74,3.47h12.26a8.9,8.9,0,0,0-.74-3.45Z"/>
        <path class="cls-2" d="M205.4,64.49c-5.08,0-9.66-.56-13.75-4.64l5.27-5.27c2.66,2.67,6.13,3,8.6,3,2.79,0,5.7-.93,5.7-3.35,0-1.61-.87-2.72-3.41-3l-5.07-.49c-5.82-.56-9.42-3.1-9.42-9,0-6.69,5.89-10.28,12.45-10.28,5,0,9.23.86,12.32,3.77l-5,5c-1.86-1.67-4.71-2.17-7.49-2.17-3.22,0-4.59,1.49-4.59,3.1,0,1.17.5,2.54,3.35,2.78l5.08.5c6.37.62,9.59,4,9.59,9.47C219.08,61.08,213,64.49,205.4,64.49Z"/>
        <path class="cls-2" d="M231.59,64.12c-6.56,0-9.35-4.65-9.35-9.23v-16h-3.4v-6.1h3.4V23.25h8v9.54H236v6.13h-5.7V54.4c0,1.85.87,2.91,2.79,2.91H236v6.81Z"/>
      </g>
    </g>
    <g id="ball">
      <g id="Calque_1-2" data-name="Calque 1-2">
        <g>
          <circle class="cls-3" cx="37" cy="37" r="37"/>
          <path class="cls-4" d="M26.51,1.66C42.82,1.66,56.05,17.48,56.05,37S42.82,72.34,26.51,72.34a35.34,35.34,0,0,0,0-70.68Z"/>
          <path class="cls-4" d="M34.08,22.62c19.25-3.24,36.88,6.17,39.37,21-3-17.75-21-29.51-40.25-26.28S.76,37.59,3.74,55.33C1.25,40.5,14.83,25.85,34.08,22.62Z"/>
        </g>
      </g>
    </g>
  </g>
</svg>
