<svg xmlns="http://www.w3.org/2000/svg" xmlns:xlink="http://www.w3.org/1999/xlink" viewBox="0 0 407.54 110.83">
  <defs>
    <style>
      .cls-1 {
        fill: gray;
      }

      .cls-2 {
        fill: #4d4d4d;
      }

      .cls-3 {
        fill: url(#Dégradé_sans_nom);
      }

      .cls-4 {
        fill: #fff;
      }
    </style>
    <radialGradient id="Dégradé_sans_nom" data-name="Dégradé sans nom" cx="37" cy="71" r="37" gradientTransform="matrix(1, 0, 0, -1, 0, 108)" gradientUnits="userSpaceOnUse">
      <stop offset="0" stop-color="#fff"/>
      <stop offset="1" stop-color="#488b9b"/>
    </radialGradient>
  </defs>
  <title>digestscience-logo</title>
  <g id="Calque_2" data-name="Calque 2">
    <g id="slogan">
      <g>
        <path d="M170.78,78v4.59h4.29v.76h-4.29v5.06h-.72V77.23h5.75V78Z"/>
        <path d="M181,87.65a2.33,2.33,0,0,1-3.28.29,2.65,2.65,0,0,1-.29-.29,6.16,6.16,0,0,1,0-6.08,2.33,2.33,0,0,1,3.28-.29,2.65,2.65,0,0,1,.29.29A6.16,6.16,0,0,1,181,87.65Zm-.45-5.56a1.7,1.7,0,0,0-2.67,0,5.86,5.86,0,0,0,0,5,1.7,1.7,0,0,0,2.67,0,4,4,0,0,0,.57-2.52,4,4,0,0,0-.59-2.52Z"/>
        <path d="M188.21,88.39V83.7c0-1.46-.63-2.26-1.77-2.26s-1.81.84-1.81,2.26v4.69H184V80.83h.68v.9a2.24,2.24,0,0,1,1.89-1,2.15,2.15,0,0,1,1.7.72,3.13,3.13,0,0,1,.67,2.1v4.83Z"/>
        <path d="M195.28,88.39v-1a2,2,0,0,1-1.9,1.07,2,2,0,0,1-1.57-.66,5,5,0,0,1-.83-3.21,5,5,0,0,1,.83-3.21,2,2,0,0,1,1.57-.66,2,2,0,0,1,1.9,1.06V77.23H196V88.39Zm-1.81-7c-1.57,0-1.81,1.6-1.81,3.17s.24,3.17,1.81,3.17,1.81-1.6,1.81-3.17-.28-3.12-1.81-3.12Z"/>
        <path d="M202.27,88.39v-.76a2.8,2.8,0,0,1-3.85.16,2.42,2.42,0,0,1-.46-1.47,2,2,0,0,1,1.79-2.19,2.26,2.26,0,0,1,.45,0h2.07v-.85c0-1.2-.5-1.85-1.81-1.85a1.76,1.76,0,0,0-1.77,1l-.49-.5a2.29,2.29,0,0,1,2.26-1.16A2.21,2.21,0,0,1,203,82.62a2.41,2.41,0,0,1,0,.6v5.17Zm0-3.61h-2c-1.11,0-1.64.52-1.64,1.52s.52,1.48,1.68,1.48a1.93,1.93,0,0,0,1.59-.58,2.2,2.2,0,0,0,.36-1.45Z"/>
        <path d="M207.15,88.39c-1,0-1.55-.83-1.55-2v-5h-.88v-.6h.88V78.42h.68v2.41h1.45v.6h-1.45v5c0,.78.31,1.25,1,1.25h.46v.71Z"/>
        <path d="M209.65,78.22v-1h.84v1Zm.08,10.17V80.83h.68v7.56Z"/>
        <path d="M217,87.65a2.33,2.33,0,0,1-3.28.29,2.65,2.65,0,0,1-.29-.29,6.16,6.16,0,0,1,0-6.08,2.33,2.33,0,0,1,3.28-.29,2.65,2.65,0,0,1,.29.29A6.16,6.16,0,0,1,217,87.65Zm-.45-5.56a1.7,1.7,0,0,0-2.39-.28,1.85,1.85,0,0,0-.28.28,5.86,5.86,0,0,0,0,5,1.7,1.7,0,0,0,2.39.28,1.85,1.85,0,0,0,.28-.28,4,4,0,0,0,.57-2.52,4,4,0,0,0-.62-2.52Z"/>
        <path d="M224.18,88.39V83.7c0-1.46-.63-2.26-1.77-2.26s-1.81.84-1.81,2.26v4.69h-.68V80.83h.68v.9a2.24,2.24,0,0,1,1.89-1,2.15,2.15,0,0,1,1.7.72,3.13,3.13,0,0,1,.67,2.1v4.83Z"/>
        <path d="M234.61,88.39v-1a2.22,2.22,0,0,1-3.48.41,6.71,6.71,0,0,1,0-6.42,2,2,0,0,1,1.57-.66,2,2,0,0,1,1.91,1.06V77.23h.68V88.39Zm-1.81-7c-1.58,0-1.81,1.6-1.81,3.17s.23,3.17,1.81,3.17,1.81-1.6,1.81-3.17-.24-3.12-1.81-3.12Z"/>
        <path d="M238.14,84.78c0,1.91.73,3,2.09,3a2.12,2.12,0,0,0,1.77-.91l.51.47a2.74,2.74,0,0,1-2.32,1.16c-1.77,0-2.73-1.35-2.73-3.87s1-3.87,2.57-3.87,2.57,1.38,2.57,3.68v.36Zm3.55-2.07a1.73,1.73,0,0,0-3.33,0,3.86,3.86,0,0,0-.22,1.43h3.78A4.08,4.08,0,0,0,241.69,82.71Z"/>
        <path d="M251.72,82a1.38,1.38,0,0,0-1.21-.6c-1.11,0-1.72,1.07-1.72,2.29v4.66h-.68V80.83h.68v1a2.1,2.1,0,0,1,1.88-1.1,1.88,1.88,0,0,1,1.54.72Z"/>
        <path d="M253.36,84.78c0,1.91.73,3,2.09,3a2.12,2.12,0,0,0,1.77-.91l.51.47a2.74,2.74,0,0,1-2.32,1.16c-1.77,0-2.73-1.35-2.73-3.87s1-3.87,2.57-3.87,2.57,1.38,2.57,3.68v.36Zm3.55-2.07a1.73,1.73,0,0,0-3.33,0,3.86,3.86,0,0,0-.22,1.43h3.78A4.08,4.08,0,0,0,256.91,82.71Z"/>
        <path d="M262.43,88.48c-1.75,0-2.83-1.47-2.83-3.87s1.08-3.87,2.83-3.87a2.39,2.39,0,0,1,2.11,1.16l-.46.5a1.87,1.87,0,0,0-1.65-1,1.93,1.93,0,0,0-1.71,1,5.49,5.49,0,0,0,0,4.32,1.93,1.93,0,0,0,1.71,1,1.87,1.87,0,0,0,1.65-1l.46.5A2.39,2.39,0,0,1,262.43,88.48Z"/>
        <path d="M270.76,88.39V83.7c0-1.46-.62-2.26-1.77-2.26s-1.81.84-1.81,2.26v4.69h-.68V77.23h.68v4.5a2.24,2.24,0,0,1,1.89-1c1.47,0,2.37,1.08,2.37,2.82v4.83Z"/>
        <path d="M274.21,84.78c0,1.91.73,3,2.09,3a2.12,2.12,0,0,0,1.78-.91l.5.47a2.74,2.74,0,0,1-2.32,1.16c-1.77,0-2.73-1.35-2.73-3.87s1-3.87,2.57-3.87,2.57,1.38,2.57,3.68v.36Zm3.56-2.07a1.73,1.73,0,0,0-3.33,0,4.08,4.08,0,0,0-.23,1.43H278A4.08,4.08,0,0,0,277.77,82.71Z"/>
        <path d="M284.44,82a1.38,1.38,0,0,0-1.21-.6c-1.11,0-1.72,1.07-1.72,2.29v4.66h-.68V80.83h.68v1a2.1,2.1,0,0,1,1.88-1.1,1.88,1.88,0,0,1,1.54.72Z"/>
        <path d="M288.22,88.48c-1.75,0-2.82-1.47-2.82-3.87s1.07-3.87,2.82-3.87a2.37,2.37,0,0,1,2.12,1.16l-.47.5a1.87,1.87,0,0,0-1.65-1,1.93,1.93,0,0,0-1.71,1,5.67,5.67,0,0,0,0,4.32,1.93,1.93,0,0,0,1.71,1,1.87,1.87,0,0,0,1.65-1l.47.5A2.38,2.38,0,0,1,288.22,88.48Z"/>
        <path d="M296.56,88.39V83.7c0-1.46-.63-2.26-1.77-2.26S293,82.28,293,83.7v4.69h-.68V77.23H293v4.5a2.26,2.26,0,0,1,1.9-1c1.46,0,2.37,1.08,2.37,2.82v4.83Z"/>
        <path d="M300,84.78c0,1.91.74,3,2.1,3a2.12,2.12,0,0,0,1.77-.91l.5.47a2.72,2.72,0,0,1-2.31,1.16c-1.78,0-2.73-1.35-2.73-3.87s.95-3.87,2.57-3.87,2.57,1.38,2.57,3.68v.36Zm3.56-2.07a1.73,1.73,0,0,0-3.33,0,4.08,4.08,0,0,0-.23,1.43h3.79A4.08,4.08,0,0,0,303.56,82.71Z"/>
        <path d="M312,88.48a3.22,3.22,0,0,1-2.6-1.08l.47-.55a2.51,2.51,0,0,0,2.1.93c1.26,0,1.94-.52,1.94-1.54,0-.78-.39-1.18-1.23-1.27l-1.07-.11a1.84,1.84,0,0,1-1.93-1.74,1.13,1.13,0,0,1,0-.26,2.1,2.1,0,0,1,2-2.16H312a3.38,3.38,0,0,1,2.25.8l-.45.53a2.74,2.74,0,0,0-1.8-.64c-1.06,0-1.64.53-1.64,1.46s.4,1.17,1.3,1.27l1,.11c1.07.1,1.88.5,1.88,2S313.52,88.48,312,88.48Z"/>
        <path d="M320.7,88.39v-.9a2.24,2.24,0,0,1-1.89,1,2.18,2.18,0,0,1-1.71-.72,3.18,3.18,0,0,1-.66-2.1V80.83h.68v4.69c0,1.46.62,2.26,1.77,2.26s1.81-.83,1.81-2.26V80.83h.68v7.56Z"/>
        <path d="M327.53,82a1.38,1.38,0,0,0-1.21-.6c-1.11,0-1.72,1.07-1.72,2.29v4.66h-.68V80.83h.68v1a2.1,2.1,0,0,1,1.88-1.1,1.88,1.88,0,0,1,1.54.72Z"/>
        <path d="M334.2,88.39c-1,0-1.54-.79-1.54-2v-9.2h.68v9.18c0,.85.22,1.27,1,1.27h.47v.71Z"/>
        <path d="M336.44,84.78c0,1.91.73,3,2.09,3a2.08,2.08,0,0,0,1.77-.91l.51.47a2.74,2.74,0,0,1-2.32,1.16c-1.77,0-2.73-1.35-2.73-3.87s1-3.87,2.57-3.87,2.57,1.38,2.57,3.68v.36ZM340,82.71a1.73,1.73,0,0,0-3.33,0,4.08,4.08,0,0,0-.23,1.43h3.78A3.86,3.86,0,0,0,340,82.71Z"/>
        <path d="M345,88.48a3.22,3.22,0,0,1-2.6-1.08l.47-.55a2.51,2.51,0,0,0,2.1.93c1.25,0,1.93-.52,1.93-1.54,0-.78-.38-1.18-1.22-1.27l-1.07-.11a1.84,1.84,0,0,1-1.93-1.74,1.13,1.13,0,0,1,0-.26,2.1,2.1,0,0,1,2.07-2.13H345a3.38,3.38,0,0,1,2.25.8l-.46.53a2.68,2.68,0,0,0-1.79-.64c-1.06,0-1.64.53-1.64,1.46,0,.78.4,1.17,1.3,1.27l1,.11c1.07.1,1.88.5,1.88,2S346.6,88.48,345,88.48Z"/>
        <path d="M361.48,88.39V83.7c0-1.46-.63-2.26-1.77-2.26s-1.82.84-1.82,2.12v4.83h-.68V83.7c0-1.46-.62-2.26-1.77-2.26s-1.81.84-1.81,2.26v4.69H353V80.83h.68v.9a2.29,2.29,0,0,1,1.91-1,2.16,2.16,0,0,1,2.06,1.38,2.41,2.41,0,0,1,2.19-1.38,2.21,2.21,0,0,1,1.69.72,3.18,3.18,0,0,1,.66,2.1v4.83Z"/>
        <path d="M368.38,88.39v-.76a2.21,2.21,0,0,1-2,.85,2.14,2.14,0,0,1-1.89-.69,2.35,2.35,0,0,1-.47-1.47,2,2,0,0,1,1.79-2.19,2.26,2.26,0,0,1,.45,0h2.08v-.85c0-1.2-.51-1.85-1.82-1.85a1.76,1.76,0,0,0-1.77,1l-.49-.5a2.31,2.31,0,0,1,2.26-1.16A2.21,2.21,0,0,1,369,82.67a2,2,0,0,1,0,.59v5.17Zm0-3.61h-2c-1.11,0-1.64.52-1.64,1.52s.52,1.48,1.68,1.48a2,2,0,0,0,1.6-.58,2.2,2.2,0,0,0,.36-1.45Z"/>
        <path d="M373.06,88.39c-1,0-1.54-.79-1.54-2v-9.2h.68v9.18c0,.85.22,1.27,1,1.27h.47v.71Z"/>
        <path d="M379.1,88.39v-.76a2.21,2.21,0,0,1-2,.85,2.14,2.14,0,0,1-1.89-.69,2.35,2.35,0,0,1-.47-1.47,2,2,0,0,1,1.79-2.19,2.46,2.46,0,0,1,.47,0h2.08v-.85c0-1.2-.51-1.85-1.82-1.85a1.76,1.76,0,0,0-1.77,1l-.49-.5a2.32,2.32,0,0,1,2.26-1.16,2.21,2.21,0,0,1,2.5,1.88,2,2,0,0,1,0,.6v5.17Zm0-3.61h-2c-1.11,0-1.64.52-1.64,1.52s.52,1.48,1.68,1.48a2,2,0,0,0,1.6-.58,2.2,2.2,0,0,0,.36-1.45Z"/>
        <path d="M386.19,88.39v-1a2,2,0,0,1-1.9,1.07,2,2,0,0,1-1.57-.66,6.6,6.6,0,0,1,0-6.42,2,2,0,0,1,1.57-.66,2,2,0,0,1,1.9,1.06V77.23h.68V88.39Zm-1.81-7c-1.57,0-1.81,1.6-1.81,3.17s.24,3.17,1.81,3.17,1.81-1.6,1.81-3.17-.19-3.12-1.81-3.12Z"/>
        <path d="M389.34,78.22v-1h.84v1Zm.08,10.17V80.83h.68v7.56Z"/>
        <path d="M393,84.78c0,1.91.73,3,2.09,3a2.12,2.12,0,0,0,1.77-.91l.5.47A2.72,2.72,0,0,1,395,88.48c-1.78,0-2.73-1.35-2.73-3.87s1-3.87,2.57-3.87,2.57,1.38,2.57,3.68v.36Zm3.55-2.07a1.73,1.73,0,0,0-3.33,0,3.86,3.86,0,0,0-.22,1.43h3.78a4.13,4.13,0,0,0-.28-1.43Z"/>
        <path d="M401.54,88.48a3.22,3.22,0,0,1-2.6-1.08l.46-.55a2.52,2.52,0,0,0,2.11.93c1.25,0,1.93-.52,1.93-1.54,0-.78-.39-1.18-1.23-1.27l-1.06-.11a1.84,1.84,0,0,1-1.93-1.74,1.13,1.13,0,0,1,0-.26,2.09,2.09,0,0,1,2-2.16h.28a3.38,3.38,0,0,1,2.25.8l-.45.53a2.64,2.64,0,0,0-1.8-.64c-1,0-1.64.53-1.64,1.46s.4,1.17,1.31,1.27l1,.11c1.06.1,1.88.5,1.88,2S403.11,88.48,401.54,88.48Z"/>
        <path d="M173.81,107.14v-1a2,2,0,0,1-1.9,1.07,2,2,0,0,1-1.57-.66,6.6,6.6,0,0,1,0-6.42,2.22,2.22,0,0,1,3.14,0,2.18,2.18,0,0,1,.33.42V96h.68v11.16Zm-1.81-7c-1.57,0-1.81,1.6-1.81,3.17s.24,3.16,1.81,3.16,1.81-1.59,1.81-3.16-.23-3.12-1.81-3.12Z"/>
        <path d="M177.34,103.53c0,1.91.74,3,2.09,3a2.12,2.12,0,0,0,1.78-.91l.5.47a2.74,2.74,0,0,1-2.32,1.16c-1.77,0-2.73-1.35-2.73-3.87s1-3.87,2.57-3.87,2.58,1.38,2.58,3.68v.36Zm3.56-2.07a1.73,1.73,0,0,0-3.33,0,4.08,4.08,0,0,0-.23,1.43h3.79A4.08,4.08,0,0,0,180.9,101.46Z"/>
        <path d="M188.84,107.14c-1,0-1.55-.79-1.55-2V96H188v9.18c0,.85.23,1.27,1,1.27h.46v.71Z"/>
        <path d="M191.07,98.42V96h.84v2.44Z"/>
        <path d="M198.2,107.14v-.76a2.19,2.19,0,0,1-2,.85,2.16,2.16,0,0,1-1.89-.69,2.43,2.43,0,0,1-.47-1.47,2,2,0,0,1,1.79-2.19,2.26,2.26,0,0,1,.45,0h2.08V102c0-1.2-.51-1.85-1.81-1.85a1.75,1.75,0,0,0-1.77,1l-.5-.5a2.32,2.32,0,0,1,2.27-1.16,2.22,2.22,0,0,1,2.49,1.89,2.81,2.81,0,0,1,0,.58v5.18Zm0-3.61h-2c-1.1,0-1.64.52-1.64,1.52s.52,1.47,1.68,1.47a1.92,1.92,0,0,0,1.6-.58,2.1,2.1,0,0,0,.36-1.44Z"/>
        <path d="M205.52,106.57a2,2,0,0,1-1.57.66,2,2,0,0,1-1.9-1.07v4.58h-.68V99.58h.68v1a2.22,2.22,0,0,1,3-.73,1.91,1.91,0,0,1,.42.33,6.6,6.6,0,0,1,0,6.42Zm-1.66-6.38c-1.57,0-1.81,1.6-1.81,3.17s.24,3.16,1.81,3.16,1.81-1.59,1.81-3.16S205.43,100.19,203.86,100.19Z"/>
        <path d="M212.68,106.57a2.06,2.06,0,0,1-1.58.66,2,2,0,0,1-1.9-1.07v4.58h-.68V99.58h.68v1a2,2,0,0,1,1.9-1.06,2.06,2.06,0,0,1,1.58.66,6.71,6.71,0,0,1,0,6.42ZM211,100.19c-1.57,0-1.81,1.6-1.81,3.17s.24,3.16,1.81,3.16,1.81-1.59,1.81-3.16S212.58,100.19,211,100.19Z"/>
        <path d="M219.44,107.14v-.76a2.85,2.85,0,0,1-3.89.16,2.43,2.43,0,0,1-.47-1.47,2,2,0,0,1,1.79-2.19,2.26,2.26,0,0,1,.45,0h2.08V102c0-1.2-.51-1.85-1.81-1.85a1.75,1.75,0,0,0-1.77,1l-.5-.5a2.32,2.32,0,0,1,2.27-1.16,2.22,2.22,0,0,1,2.49,1.89,2.81,2.81,0,0,1,0,.58v5.18Zm0-3.61h-2c-1.1,0-1.64.52-1.64,1.52s.52,1.47,1.68,1.47a1.92,1.92,0,0,0,1.6-.58,2.1,2.1,0,0,0,.36-1.44Z"/>
        <path d="M226.22,100.79a1.36,1.36,0,0,0-1.21-.6c-1.11,0-1.72,1.07-1.72,2.29v4.66h-.68V99.58h.68v1a2.12,2.12,0,0,1,1.88-1.09,1.88,1.88,0,0,1,1.54.72Z"/>
        <path d="M227.86,103.53c0,1.91.73,3,2.09,3a2.12,2.12,0,0,0,1.77-.91l.5.47a2.72,2.72,0,0,1-2.31,1.16c-1.78,0-2.73-1.35-2.73-3.87s.95-3.87,2.57-3.87,2.57,1.38,2.57,3.68v.36Zm3.55-2.07a1.73,1.73,0,0,0-3.33,0,3.86,3.86,0,0,0-.22,1.43h3.78A4.08,4.08,0,0,0,231.41,101.46Z"/>
        <path d="M234.39,97V96h.84v1Zm.08,10.17V99.58h.68v7.56Z"/>
        <path d="M239.21,107.14c-1,0-1.54-.79-1.54-2V96h.68v9.18c0,.85.23,1.27,1,1.27h.47v.71Z"/>
        <path d="M248.76,107.14v-1a2,2,0,0,1-1.9,1.07,2,2,0,0,1-1.57-.66,6.6,6.6,0,0,1,0-6.42,2.22,2.22,0,0,1,3.14,0,2.18,2.18,0,0,1,.33.42V96h.68v11.16Zm-1.81-7c-1.57,0-1.81,1.6-1.81,3.17s.24,3.16,1.81,3.16,1.81-1.59,1.81-3.16-.24-3.12-1.76-3.12Z"/>
        <path d="M251.91,97V96h.84v1Zm.08,10.17V99.58h.68v7.56Z"/>
        <path d="M257.19,110.83a2.53,2.53,0,0,1-2.11-1l.45-.53a2,2,0,0,0,1.66.83c1.35,0,1.95-1.13,1.95-2.62v-1.35a2.22,2.22,0,0,1-3.48.41,6.6,6.6,0,0,1,0-6.42,2.23,2.23,0,0,1,3.15,0,1.86,1.86,0,0,1,.33.41v-1h.68v8C259.82,109.46,258.86,110.83,257.19,110.83Zm.14-10.64c-1.58,0-1.82,1.6-1.82,3.17s.24,3.16,1.82,3.16,1.81-1.59,1.81-3.16-.24-3.17-1.81-3.17Z"/>
        <path d="M262.67,103.53c0,1.91.73,3,2.09,3a2.12,2.12,0,0,0,1.77-.91l.51.47a2.74,2.74,0,0,1-2.32,1.16c-1.77,0-2.73-1.35-2.73-3.87s1-3.87,2.57-3.87,2.57,1.38,2.57,3.68v.36Zm3.55-2.07a1.73,1.73,0,0,0-3.33,0,3.86,3.86,0,0,0-.22,1.43h3.78A4.08,4.08,0,0,0,266.22,101.46Z"/>
        <path d="M271.26,107.23a3.25,3.25,0,0,1-2.6-1.08l.46-.55a2.52,2.52,0,0,0,2.11.92c1.25,0,1.93-.51,1.93-1.53,0-.78-.38-1.18-1.22-1.27l-1.07-.11a1.85,1.85,0,0,1-1.93-2,2.07,2.07,0,0,1,2-2.16h.3a3.44,3.44,0,0,1,2.26.8l-.46.53a2.64,2.64,0,0,0-1.8-.64c-1.05,0-1.63.53-1.63,1.46s.39,1.17,1.3,1.26l1,.11c1.07.11,1.88.51,1.88,2S272.83,107.23,271.26,107.23Z"/>
        <path d="M277.4,107.14c-1,0-1.55-.83-1.55-2v-5H275v-.6h.88V97.17h.68v2.41H278v.6h-1.45v5c0,.78.31,1.25,1,1.25H278v.71Z"/>
        <path d="M279.9,97V96h.84v1Zm.08,10.17V99.58h.68v7.56Z"/>
        <path d="M284.08,100.18v7h-.68v-7h-.88v-.6h.88V98c0-1.14.53-2,1.55-2h.58v.7h-.46c-.68,0-1,.47-1,1.26V99.6h1.45v.6Z"/>
        <path d="M290.87,103.53c0,1.91.73,3,2.09,3a2.12,2.12,0,0,0,1.78-.91l.5.47a2.74,2.74,0,0,1-2.32,1.16c-1.77,0-2.73-1.35-2.73-3.87s1-3.87,2.57-3.87,2.57,1.38,2.57,3.68v.36Zm3.56-2.07a1.73,1.73,0,0,0-3.33,0,4.08,4.08,0,0,0-.23,1.43h3.79A4.08,4.08,0,0,0,294.43,101.46Z"/>
        <path d="M299.2,107.14c-1,0-1.55-.83-1.55-2v-5h-.88v-.6h.88V97.17h.68v2.41h1.45v.6h-1.45v5c0,.78.31,1.25,1,1.25h.46v.71Z"/>
        <path d="M306.65,107.14c-1,0-1.54-.79-1.54-2V96h.68v9.18c0,.85.22,1.27,1,1.27h.47v.71Z"/>
        <path d="M312.69,107.14v-.76a2.21,2.21,0,0,1-2,.85,2.14,2.14,0,0,1-1.89-.69,2.35,2.35,0,0,1-.47-1.47,2,2,0,0,1,1.79-2.19,2.26,2.26,0,0,1,.45,0h2.08V102c0-1.2-.51-1.85-1.82-1.85a1.76,1.76,0,0,0-1.77,1l-.49-.5a2.29,2.29,0,0,1,2.26-1.16,2.21,2.21,0,0,1,2.5,1.88,2.33,2.33,0,0,1,0,.59v5.18Zm0-3.61h-2c-1.11,0-1.64.52-1.64,1.52s.52,1.47,1.68,1.47a1.92,1.92,0,0,0,1.6-.58,2.1,2.1,0,0,0,.36-1.44Z"/>
        <path d="M323.47,107.14v-4.69c0-1.46-.62-2.26-1.77-2.26s-1.81.83-1.81,2.26v4.69h-.68V99.58h.68v.9a2.24,2.24,0,0,1,1.89-1,2.18,2.18,0,0,1,1.71.72,3.18,3.18,0,0,1,.66,2.1v4.83Z"/>
        <path d="M330.8,107.14v-.9a2.24,2.24,0,0,1-1.89,1,2.17,2.17,0,0,1-1.71-.72,3.18,3.18,0,0,1-.66-2.1V99.58h.67v4.69c0,1.46.63,2.25,1.78,2.25s1.81-.83,1.81-2.25V99.58h.68v7.56Z"/>
        <path d="M335.72,107.14c-1,0-1.54-.83-1.54-2v-5h-.88v-.6h.88V97.17h.68v2.41h1.45v.6h-1.45v5c0,.78.31,1.25,1,1.25h.47v.71Z"/>
        <path d="M341.92,100.79a1.36,1.36,0,0,0-1.21-.6c-1.11,0-1.72,1.07-1.72,2.29v4.66h-.68V99.58H339v1a2.12,2.12,0,0,1,1.88-1.09,1.88,1.88,0,0,1,1.54.72Z"/>
        <path d="M343.63,97V96h.84v1Zm.08,10.17V99.58h.68v7.56Z"/>
        <path d="M348.64,107.14c-1,0-1.54-.83-1.54-2v-5h-.88v-.6h.88V97.17h.68v2.41h1.45v.6h-1.45v5c0,.78.3,1.25,1,1.25h.47v.71Z"/>
        <path d="M351.15,97V96H352v1Zm.08,10.17V99.58h.68v7.56Z"/>
        <path d="M358.44,106.4a2.33,2.33,0,0,1-3.27.29,2.65,2.65,0,0,1-.29-.29,6.16,6.16,0,0,1,0-6.08,2.33,2.33,0,0,1,3.27-.29,2.65,2.65,0,0,1,.29.29A6.16,6.16,0,0,1,358.44,106.4Zm-.44-5.56a1.7,1.7,0,0,0-2.37-.29,1.59,1.59,0,0,0-.29.29,5.77,5.77,0,0,0,0,5,1.7,1.7,0,0,0,2.39.27,1.72,1.72,0,0,0,.27-.27A5.84,5.84,0,0,0,358,100.84Z"/>
        <path d="M365.68,107.14v-4.69c0-1.46-.63-2.26-1.78-2.26s-1.81.83-1.81,2.26v4.69h-.68V99.58h.68v.9a2.24,2.24,0,0,1,1.89-1,2.17,2.17,0,0,1,1.71.72,3.13,3.13,0,0,1,.67,2.1v4.83Z"/>
      </g>
    </g>
    <g id="science">
      <g>
        <path class="cls-1" d="M252.67,64.28c-6.57,0-10.65-1.8-14.68-5.82l2.35-2.35c4,4,7.19,5.2,12.51,5.2,6.94,0,11.33-3.35,11.33-9.1a8,8,0,0,0-2.41-6.2c-1.61-1.36-2.79-1.79-6.38-2.35l-5.14-.81a15.16,15.16,0,0,1-7.86-3.22,10,10,0,0,1-3.47-8.11c0-7.37,5.26-12.07,13.69-12.07a17.4,17.4,0,0,1,12.69,4.77l-2.17,2.16a14.34,14.34,0,0,0-10.71-4.08c-6.38,0-10.22,3.53-10.22,9.1a7.09,7.09,0,0,0,2.29,5.76,14.1,14.1,0,0,0,6.57,2.72l4.77.75c4.14.62,6,1.36,7.86,2.91a10.83,10.83,0,0,1,3.84,8.54C267.53,59.51,261.83,64.28,252.67,64.28Z"/>
        <path class="cls-1" d="M282.39,64.28c-8.11,0-13.13-5.82-13.13-15.29s5-15.3,13.13-15.3c4.09,0,6.62,1.05,9.85,4.58l-2.17,2c-2.54-2.84-4.52-3.77-7.68-3.77a9.24,9.24,0,0,0-7.93,4c-1.48,2.17-2,4.52-2,8.55s.56,6.37,2,8.54a9.24,9.24,0,0,0,7.93,4c3.16,0,5.14-.93,7.68-3.77l2.17,2C289,63.23,286.48,64.28,282.39,64.28Z"/>
        <path class="cls-1" d="M297,23.72v-3.9h3.9v3.9Zm.37,40.19V34.06h3.16V63.91Z"/>
        <path class="cls-1" d="M308.73,49.67c0,7.55,3.41,11.76,9.73,11.76a10.23,10.23,0,0,0,8.23-3.59L329,59.7c-3,3-5.82,4.58-10.77,4.58C310,64.28,305.58,59,305.58,49c0-9.6,4.45-15.3,11.95-15.3s12,5.45,12,14.55v1.43Zm16.54-8.18a8.48,8.48,0,0,0-15.48,0,14,14,0,0,0-1.06,5.64h17.59a13.82,13.82,0,0,0-1.05-5.64Z"/>
        <path class="cls-1" d="M353.32,63.91V45.39c0-5.76-2.91-8.91-8.24-8.91s-8.42,3.28-8.42,8.91V63.91H333.5V34.06h3.16v3.53a12.13,12.13,0,0,1,16.72-1.05,11.26,11.26,0,0,1,3.09,8.3V63.91Z"/>
        <path class="cls-1" d="M373.32,64.28c-8.11,0-13.13-5.82-13.13-15.29s5-15.3,13.13-15.3c4.08,0,6.62,1.05,9.84,4.58l-2.16,2c-2.54-2.84-4.52-3.77-7.68-3.77a9.24,9.24,0,0,0-7.93,4c-1.48,2.17-2,4.52-2,8.55s.56,6.37,2,8.54a9.24,9.24,0,0,0,7.93,4c3.16,0,5.14-.93,7.68-3.77l2.16,2C379.94,63.23,377.4,64.28,373.32,64.28Z"/>
        <path class="cls-1" d="M386.75,49.67c0,7.55,3.4,11.76,9.72,11.76,3.53,0,5.69-1,8.23-3.59l2.36,1.86c-3,3-5.83,4.58-10.78,4.58-8.23,0-12.69-5.33-12.69-15.29,0-9.6,4.46-15.3,12-15.3s12,5.45,12,14.55v1.43Zm16.53-8.18a8.48,8.48,0,0,0-15.48,0,13.79,13.79,0,0,0-1.05,5.64h17.58A13.82,13.82,0,0,0,403.28,41.49Z"/>
      </g>
    </g>
    <g id="digest">
      <g>
        <path class="cls-2" d="M111.71,59.91c-2.91,2.91-7.06,4.21-11.64,4.21H84.16V20h15.91c4.58,0,8.73,1.3,11.64,4.21,5,5,4.46,11,4.46,17.65S116.67,55,111.71,59.91Zm-6-29.48a7.73,7.73,0,0,0-6.44-2.72h-6.5V56.44h6.5a7.73,7.73,0,0,0,6.44-2.72c1.61-2,1.85-5.14,1.85-11.83S107.32,32.41,105.71,30.43Z"/>
        <path class="cls-2" d="M120.51,26.35V19.78h8.23v6.57Zm.12,37.77V31.86h8.05V64.12Z"/>
        <path class="cls-2" d="M145.09,76.32c-5,0-8.36-1-11.7-4.21l5-5.08a8.22,8.22,0,0,0,6.32,2.48c4.83,0,6.5-3.41,6.5-6.69V59.54a9.48,9.48,0,0,1-7.68,3.22,10.77,10.77,0,0,1-7.68-2.85c-3-3-3.28-7.18-3.28-12.82s.25-9.72,3.28-12.76a10.94,10.94,0,0,1,7.74-2.84,9.44,9.44,0,0,1,7.87,3.4v-3h7.8V62.94C159.27,70.68,153.76,76.32,145.09,76.32Zm.8-37.59c-4.76,0-5.26,4.09-5.26,8.36s.5,8.42,5.26,8.42,5.33-4.15,5.33-8.42S150.66,38.73,145.89,38.73Z"/>
        <path class="cls-2" d="M170.91,50.5c0,4.15,2.54,7.18,7.06,7.18a9,9,0,0,0,7.31-3l4.89,4.76c-3.28,3.29-6.44,5.08-12.26,5.08C170.29,64.49,163,61,163,48c0-10.53,5.7-16.47,14.06-16.47,9,0,14.06,6.56,14.06,15.42V50.5Zm11.52-9a6,6,0,0,0-10.78,0,8.86,8.86,0,0,0-.74,3.47h12.26a8.9,8.9,0,0,0-.74-3.45Z"/>
        <path class="cls-2" d="M205.4,64.49c-5.08,0-9.66-.56-13.75-4.64l5.27-5.27c2.66,2.67,6.13,3,8.6,3,2.79,0,5.7-.93,5.7-3.35,0-1.61-.87-2.72-3.41-3l-5.07-.49c-5.82-.56-9.42-3.1-9.42-9,0-6.69,5.89-10.28,12.45-10.28,5,0,9.23.86,12.32,3.77l-5,5c-1.86-1.67-4.71-2.17-7.49-2.17-3.22,0-4.59,1.49-4.59,3.1,0,1.17.5,2.54,3.35,2.78l5.08.5c6.37.62,9.59,4,9.59,9.47C219.08,61.08,213,64.49,205.4,64.49Z"/>
        <path class="cls-2" d="M231.59,64.12c-6.56,0-9.35-4.65-9.35-9.23v-16h-3.4v-6.1h3.4V23.25h8v9.54H236v6.13h-5.7V54.4c0,1.85.87,2.91,2.79,2.91H236v6.81Z"/>
      </g>
    </g>
    <g id="ball">
      <g id="Calque_1-2" data-name="Calque 1-2">
        <g>
          <circle class="cls-3" cx="37" cy="37" r="37"/>
          <path class="cls-4" d="M26.51,1.66C42.82,1.66,56.05,17.48,56.05,37S42.82,72.34,26.51,72.34a35.34,35.34,0,0,0,0-70.68Z"/>
          <path class="cls-4" d="M34.08,22.62c19.25-3.24,36.88,6.17,39.37,21-3-17.75-21-29.51-40.25-26.28S.76,37.59,3.74,55.33C1.25,40.5,14.83,25.85,34.08,22.62Z"/>
        </g>
      </g>
    </g>
  </g>
</svg>
