<svg xmlns="http://www.w3.org/2000/svg" viewBox="0 0 87 87" width="87px" height="87px">
  <defs>
    <style>
      .cls-1 {
        fill: #B729B9;
      }

      .cls-2 {
        isolation: isolate;
      }

      .cls-3 {
        fill: #fff;
      }
    </style>
  </defs>
  <title>don-75</title>
  <g id="Calque_2" data-name="Calque 2">
    <g id="don-75">
      <g id="Groupe_9" data-name="Groupe 9">
        <circle id="Ellipse_10" data-name="Ellipse 10" class="cls-1" cx="43.5" cy="43.5" r="43.5"/>
        <g class="cls-2">
          <g class="cls-2">
            <path class="cls-3" d="M25.06,55.64l6.63-20.53a.09.09,0,0,0,0-.11.16.16,0,0,0-.12,0H24.1c-.09,0-.13,0-.13.13V36.5a.29.29,0,0,1-.33.33H22.32A.29.29,0,0,1,22,36.5V33.23a.29.29,0,0,1,.33-.33H33.87a.29.29,0,0,1,.33.33v1.52a1.46,1.46,0,0,1-.07.39l-6.6,20.6a.37.37,0,0,1-.39.26H25.32C25.08,56,25,55.88,25.06,55.64Z"/>
            <path class="cls-3" d="M48.62,48.91a10.21,10.21,0,0,1-.56,3.46,5.35,5.35,0,0,1-2,2.87,5.68,5.68,0,0,1-3.42,1A5.78,5.78,0,0,1,39,55.08a5.67,5.67,0,0,1-2-3.34,5.45,5.45,0,0,1-.19-1.22v-.06c0-.18.1-.27.29-.27h1.72a.29.29,0,0,1,.33.27v.13l.13.66a3.88,3.88,0,0,0,1.17,2.18,3.32,3.32,0,0,0,2.23.75,3.19,3.19,0,0,0,2.2-.77,3.94,3.94,0,0,0,1.17-2.2,9.68,9.68,0,0,0,.23-2.27A12.86,12.86,0,0,0,46,46.36a3.33,3.33,0,0,0-1.15-2,3.42,3.42,0,0,0-2.18-.68,3.87,3.87,0,0,0-2.16.58,3,3,0,0,0-1.27,1.66l-.07.14c0,.15-.13.23-.33.23H37.1a.29.29,0,0,1-.33-.33V33.23a.29.29,0,0,1,.33-.33H47.56a.29.29,0,0,1,.33.33v1.39a.29.29,0,0,1-.33.33H39.25c-.09,0-.13,0-.13.13v8.08c0,.05,0,.07.05.09s.07,0,.11,0A4.43,4.43,0,0,1,41,42.06a5.93,5.93,0,0,1,5.25.43A4.52,4.52,0,0,1,48,45,12.08,12.08,0,0,1,48.62,48.91Z"/>
            <path class="cls-3" d="M63.16,53.29a3.76,3.76,0,0,0,1.13-2.47c0-.22.17-.31.37-.27l1.65.27q.33.06.3.36a5.8,5.8,0,0,1-1.92,3.71,6.54,6.54,0,0,1-8.38-.31,6.14,6.14,0,0,1-1.65-4.49V47.22c0-.09,0-.13-.13-.13H52.48a.29.29,0,0,1-.33-.33V46a.29.29,0,0,1,.33-.33h2.05c.09,0,.13,0,.13-.13V43.43c0-.09,0-.14-.13-.14H52.48a.29.29,0,0,1-.33-.33v-.72a.29.29,0,0,1,.33-.33h2.05c.09,0,.13,0,.13-.13v-3a6.1,6.1,0,0,1,1.63-4.47,5.86,5.86,0,0,1,4.38-1.66A5.92,5.92,0,0,1,64.74,34a5.75,5.75,0,0,1,1.9,3.78v.06q0,.24-.3.3l-1.72.23h-.06q-.23,0-.3-.3a3.79,3.79,0,0,0-1.1-2.49,3.78,3.78,0,0,0-5.15.15,4.07,4.07,0,0,0-1,2.87v3.14a.12.12,0,0,0,.13.13h6.8q.36,0,.27.36l-.27.76a.37.37,0,0,1-.39.26H57.13a.12.12,0,0,0-.13.14v2.11a.12.12,0,0,0,.13.13h5.75a.26.26,0,0,1,.24.12.27.27,0,0,1,0,.28l-.3.76a.35.35,0,0,1-.36.26H57.13a.12.12,0,0,0-.13.13v3a4.07,4.07,0,0,0,1,2.87,3.79,3.79,0,0,0,5.15.16Z"/>
          </g>
        </g>
      </g>
    </g>
  </g>
</svg>
