<svg xmlns="http://www.w3.org/2000/svg" viewBox="0 0 103 103" width="103px" height="103px">
  <defs>
    <style>
      .cls-1 {
        fill: #ED9112;
      }

      .cls-2 {
        isolation: isolate;
      }

      .cls-3 {
        fill: #fff;
      }
    </style>
  </defs>
  <title>don-150</title>
  <g id="Calque_2" data-name="Calque 2">
    <g id="don-150">
      <g id="Groupe_10" data-name="Groupe 10">
        <circle id="Ellipse_10" data-name="Ellipse 10" class="cls-1" cx="51.5" cy="51.5" r="51.5"/>
        <g class="cls-2">
          <g class="cls-2">
            <path class="cls-3" d="M26.21,40.9H28a.29.29,0,0,1,.33.33V63.67A.29.29,0,0,1,28,64H26.31a.29.29,0,0,1-.33-.33V43.44a.1.1,0,0,0-.05-.1.11.11,0,0,0-.11,0L22.65,44.7l-.13,0q-.27,0-.27-.3V43.24a.48.48,0,0,1,.23-.39L25.79,41A.77.77,0,0,1,26.21,40.9Z"/>
            <path class="cls-3" d="M44.56,56.91A10.21,10.21,0,0,1,44,60.37a5.35,5.35,0,0,1-2,2.87,5.68,5.68,0,0,1-3.42,1,5.78,5.78,0,0,1-3.73-1.18A5.61,5.61,0,0,1,33,59.74a5.46,5.46,0,0,1-.2-1.22v-.06c0-.18.1-.27.29-.27h1.72a.29.29,0,0,1,.33.27v.13l.13.66a3.88,3.88,0,0,0,1.17,2.18,3.32,3.32,0,0,0,2.23.75,3.19,3.19,0,0,0,2.2-.77A3.94,3.94,0,0,0,42,59.21a9.68,9.68,0,0,0,.23-2.27A12.86,12.86,0,0,0,42,54.36a3.33,3.33,0,0,0-1.15-2,3.42,3.42,0,0,0-2.18-.68,3.9,3.9,0,0,0-2.16.58,3,3,0,0,0-1.27,1.66l-.07.14c0,.15-.13.23-.33.23H33a.29.29,0,0,1-.33-.33V41.23A.29.29,0,0,1,33,40.9H43.51a.29.29,0,0,1,.33.33v1.39a.29.29,0,0,1-.33.33H35.19c-.09,0-.13,0-.13.13v8.08c0,.05,0,.07,0,.09s.07,0,.11,0a4.43,4.43,0,0,1,1.67-1.14,5.93,5.93,0,0,1,5.25.43A4.52,4.52,0,0,1,43.93,53,12.08,12.08,0,0,1,44.56,56.91Z"/>
            <path class="cls-3" d="M49.45,62.61A6.16,6.16,0,0,1,47.73,58V46.87A5.91,5.91,0,0,1,54,40.6a6.26,6.26,0,0,1,4.6,1.72,6.1,6.1,0,0,1,1.74,4.55V58a6.14,6.14,0,0,1-1.74,4.58A6.22,6.22,0,0,1,54,64.33,6.12,6.12,0,0,1,49.45,62.61Zm7.45-1.45a4.07,4.07,0,0,0,1.09-3V46.74a4.07,4.07,0,0,0-1.09-3A3.83,3.83,0,0,0,54,42.65a3.77,3.77,0,0,0-2.84,1.12,4.12,4.12,0,0,0-1.09,3V58.19a4.14,4.14,0,0,0,1.09,3A3.78,3.78,0,0,0,54,62.28,3.83,3.83,0,0,0,56.9,61.16Z"/>
            <path class="cls-3" d="M75.2,61.29a3.82,3.82,0,0,0,1.14-2.47c0-.22.17-.31.36-.27l1.65.27q.33.06.3.36a5.79,5.79,0,0,1-1.91,3.71,5.91,5.91,0,0,1-4,1.37,5.85,5.85,0,0,1-4.36-1.68,6.13,6.13,0,0,1-1.64-4.49V55.22c0-.09,0-.13-.14-.13h-2a.29.29,0,0,1-.33-.33V54a.29.29,0,0,1,.33-.33h2c.09,0,.14,0,.14-.13V51.43a.13.13,0,0,0-.14-.14h-2A.29.29,0,0,1,64.2,51v-.72a.29.29,0,0,1,.33-.33h2c.09,0,.14,0,.14-.13v-3a6.1,6.1,0,0,1,1.63-4.47,5.83,5.83,0,0,1,4.37-1.66A6,6,0,0,1,76.79,42a5.74,5.74,0,0,1,1.89,3.78v.06c0,.16-.1.26-.29.3l-1.72.23H76.6c-.15,0-.25-.1-.29-.3a3.8,3.8,0,0,0-1.11-2.49,3.78,3.78,0,0,0-5.15.15,4.06,4.06,0,0,0-1,2.87v3.14c0,.09,0,.13.13.13H76c.24,0,.33.12.26.36L76,51a.38.38,0,0,1-.4.26h-6.4c-.09,0-.13.05-.13.14v2.11c0,.09,0,.13.13.13h5.74a.29.29,0,0,1,.25.12.3.3,0,0,1,0,.28l-.3.76a.37.37,0,0,1-.36.26H69.18c-.09,0-.13,0-.13.13v3a4.06,4.06,0,0,0,1,2.87,3.79,3.79,0,0,0,5.15.16Z"/>
          </g>
        </g>
      </g>
    </g>
  </g>
</svg>
