<svg xmlns="http://www.w3.org/2000/svg" viewBox="0 0 73 73" width="73px" height="73px">
  <defs>
    <style>
      .cls-1 {
        fill: #ED9112;
      }

      .cls-2 {
        isolation: isolate;
      }

      .cls-3 {
        fill: #fff;
      }
    </style>
  </defs>
  <title>don-40</title>
  <g id="Calque_2" data-name="Calque 2">
    <g id="don-40">
      <g id="Groupe_8" data-name="Groupe 8">
        <circle id="Ellipse_10" data-name="Ellipse 10" class="cls-1" cx="36.5" cy="36.5" r="36.5"/>
        <g class="cls-2">
          <g class="cls-2">
            <path class="cls-3" d="M25.35,40.88v1.45a.29.29,0,0,1-.33.33H23.8a.12.12,0,0,0-.13.14v5.87a.29.29,0,0,1-.33.33H21.66a.29.29,0,0,1-.33-.33V42.8a.12.12,0,0,0-.13-.14H12.48a.29.29,0,0,1-.33-.33V41.08a1.19,1.19,0,0,1,.07-.4L18.1,26.16a.35.35,0,0,1,.36-.26h1.85a.25.25,0,0,1,.23.12.34.34,0,0,1,0,.28L14.89,40.39a.11.11,0,0,0,0,.11.11.11,0,0,0,.1,0H21.2a.12.12,0,0,0,.13-.13V35.21a.29.29,0,0,1,.33-.33h1.68a.29.29,0,0,1,.33.33v5.21a.12.12,0,0,0,.13.13H25A.29.29,0,0,1,25.35,40.88Z"/>
            <path class="cls-3" d="M30.17,47.61A6.19,6.19,0,0,1,28.46,43V31.87a5.9,5.9,0,0,1,6.27-6.27,6.26,6.26,0,0,1,4.6,1.72,6.09,6.09,0,0,1,1.73,4.55V43a6.13,6.13,0,0,1-1.73,4.58,6.22,6.22,0,0,1-4.6,1.72A6.15,6.15,0,0,1,30.17,47.61Zm7.46-1.45a4.07,4.07,0,0,0,1.09-3V31.74a4.07,4.07,0,0,0-1.09-3,3.85,3.85,0,0,0-2.9-1.12,3.77,3.77,0,0,0-2.84,1.12,4.07,4.07,0,0,0-1.09,3V43.19a4.1,4.1,0,0,0,1.09,3,3.78,3.78,0,0,0,2.84,1.13A3.85,3.85,0,0,0,37.63,46.16Z"/>
            <path class="cls-3" d="M55.93,46.29a3.82,3.82,0,0,0,1.14-2.47q.06-.33.36-.27l1.65.27q.33.06.3.36a5.76,5.76,0,0,1-1.92,3.71,6.54,6.54,0,0,1-8.38-.31,6.14,6.14,0,0,1-1.65-4.49V40.22c0-.09,0-.13-.13-.13h-2a.29.29,0,0,1-.33-.33V39a.29.29,0,0,1,.33-.33h2c.09,0,.13,0,.13-.13V36.43c0-.09,0-.14-.13-.14h-2a.29.29,0,0,1-.33-.33v-.72a.29.29,0,0,1,.33-.33h2c.09,0,.13,0,.13-.13v-3a6.14,6.14,0,0,1,1.63-4.47A6.61,6.61,0,0,1,57.51,27a5.75,5.75,0,0,1,1.9,3.78v.06q0,.24-.3.3l-1.71.23h-.07c-.15,0-.25-.1-.29-.3a3.8,3.8,0,0,0-1.11-2.49,3.78,3.78,0,0,0-5.15.15,4.07,4.07,0,0,0-1,2.87v3.14c0,.09,0,.13.14.13h6.8c.24,0,.33.12.26.36l-.26.76a.38.38,0,0,1-.4.26h-6.4a.13.13,0,0,0-.14.14v2.11c0,.09,0,.13.14.13h5.74a.29.29,0,0,1,.25.12.28.28,0,0,1,0,.28l-.29.76a.37.37,0,0,1-.37.26H49.91c-.09,0-.14,0-.14.13v3a4.07,4.07,0,0,0,1,2.87,3.79,3.79,0,0,0,5.15.16Z"/>
          </g>
        </g>
      </g>
    </g>
  </g>
</svg>
