<svg xmlns="http://www.w3.org/2000/svg" viewBox="0 0 120 120" width="120px" height="120px">
  <defs>
    <style>
      .cls-1 {
        fill: #B729B9;
      }

      .cls-2 {
        isolation: isolate;
      }

      .cls-3 {
        fill: #fff;
      }
    </style>
  </defs>
  <title>don-300</title>
  <g id="Calque_2" data-name="Calque 2">
    <g id="don-300">
      <g id="Groupe_310" data-name="Groupe 310">
        <g id="Groupe_11" data-name="Groupe 11">
          <circle id="Ellipse_10-4" data-name="Ellipse 10-4" class="cls-1" cx="60" cy="60" r="60"/>
          <g class="cls-2">
            <g class="cls-2">
              <path class="cls-3" d="M39.31,66.64a10.76,10.76,0,0,1-.57,3.69,5.63,5.63,0,0,1-2.07,2.82,5.83,5.83,0,0,1-3.45,1,5.93,5.93,0,0,1-3.8-1.22,5.68,5.68,0,0,1-2-3.32A12.85,12.85,0,0,1,27.1,67c0-.23.11-.34.33-.34h1.73a.3.3,0,0,1,.34.34,10.23,10.23,0,0,0,.24,2,4,4,0,0,0,1.2,2.21,3.54,3.54,0,0,0,5.67-1.84A11.61,11.61,0,0,0,37,66.5a9.41,9.41,0,0,0-.51-3.35,3.23,3.23,0,0,0-3.22-2.4,2.11,2.11,0,0,0-1,.23.29.29,0,0,1-.17,0,.42.42,0,0,1-.3-.14l-.85-1a.34.34,0,0,1,0-.47l5.24-7s.06-.08,0-.12a.14.14,0,0,0-.1,0H27.64a.3.3,0,0,1-.34-.34V50.49a.3.3,0,0,1,.34-.34H38.87a.3.3,0,0,1,.34.34V52a.65.65,0,0,1-.13.43l-4.94,6.74c0,.05-.06.09,0,.12a.12.12,0,0,0,.1,0,4.63,4.63,0,0,1,2.75.8,4.92,4.92,0,0,1,1.69,2.31A11.17,11.17,0,0,1,39.31,66.64Z"/>
              <path class="cls-3" d="M44.87,72.42a6.33,6.33,0,0,1-1.77-4.7V56.28a6.07,6.07,0,0,1,6.44-6.43,6.44,6.44,0,0,1,4.72,1.76A6.29,6.29,0,0,1,56,56.28V67.72a6.33,6.33,0,0,1-1.77,4.7,6.4,6.4,0,0,1-4.72,1.76A6.28,6.28,0,0,1,44.87,72.42Zm7.64-1.48a4.19,4.19,0,0,0,1.12-3V56.14a4.16,4.16,0,0,0-1.12-3,3.92,3.92,0,0,0-3-1.15,3.85,3.85,0,0,0-2.91,1.15,4.16,4.16,0,0,0-1.12,3V67.89a4.19,4.19,0,0,0,1.12,3,3.83,3.83,0,0,0,2.91,1.17A4,4,0,0,0,52.51,70.94Z"/>
              <path class="cls-3" d="M61.38,72.42a6.36,6.36,0,0,1-1.76-4.7V56.28a6.05,6.05,0,0,1,6.43-6.43,6.45,6.45,0,0,1,4.73,1.76,6.29,6.29,0,0,1,1.77,4.67V67.72a6.33,6.33,0,0,1-1.77,4.7,6.41,6.41,0,0,1-4.73,1.76A6.3,6.3,0,0,1,61.38,72.42ZM69,70.94a4.19,4.19,0,0,0,1.12-3V56.14a4.16,4.16,0,0,0-1.12-3,4,4,0,0,0-3-1.15,3.88,3.88,0,0,0-2.91,1.15,4.2,4.2,0,0,0-1.11,3V67.89a4.22,4.22,0,0,0,1.11,3,3.86,3.86,0,0,0,2.91,1.17A4,4,0,0,0,69,70.94Z"/>
              <path class="cls-3" d="M87.8,71.07A4,4,0,0,0,89,68.53a.29.29,0,0,1,.37-.27l1.69.27c.23,0,.33.17.31.37a5.89,5.89,0,0,1-2,3.81,6.07,6.07,0,0,1-4.13,1.41,6,6,0,0,1-4.46-1.73,6.28,6.28,0,0,1-1.7-4.6v-3c0-.09,0-.13-.13-.13h-2.1a.3.3,0,0,1-.34-.34v-.78a.3.3,0,0,1,.34-.34H79c.09,0,.13,0,.13-.13V61c0-.09,0-.13-.13-.13h-2.1a.3.3,0,0,1-.34-.34v-.75a.3.3,0,0,1,.34-.34H79c.09,0,.13,0,.13-.13V56.18a6.27,6.27,0,0,1,1.68-4.59,6,6,0,0,1,4.48-1.71,6.09,6.09,0,0,1,4.18,1.44,5.89,5.89,0,0,1,2,3.88v.06c0,.16-.1.26-.31.31l-1.76.24h-.06c-.16,0-.26-.11-.31-.31A3.87,3.87,0,0,0,87.8,53a3.86,3.86,0,0,0-5.28.15,4.14,4.14,0,0,0-1,2.94v3.22c0,.09,0,.13.13.13h7c.25,0,.34.13.28.38l-.28.77a.38.38,0,0,1-.4.28H81.62c-.09,0-.13,0-.13.13v2.17c0,.09,0,.13.13.13h5.89a.28.28,0,0,1,.25.12.27.27,0,0,1,0,.29l-.3.78a.37.37,0,0,1-.37.27H81.62c-.09,0-.13,0-.13.13V68a4.14,4.14,0,0,0,1,2.94A3.51,3.51,0,0,0,85.24,72,3.59,3.59,0,0,0,87.8,71.07Z"/>
            </g>
          </g>
        </g>
      </g>
    </g>
  </g>
</svg>
