<svg id="Groupe_219" data-name="Groupe 219" xmlns="http://www.w3.org/2000/svg" width="280.993" height="75.023" viewBox="0 0 280.993 75.023">
  <g id="Groupe_215" data-name="Groupe 215" transform="translate(58.06 13.584)">
    <path id="Tracé_183" data-name="Tracé 183" d="M103.163,47.513a11.107,11.107,0,0,1-8,2.9H84.2V20H95.164a11,11,0,0,1,8,2.9c3.448,3.448,3.1,7.585,3.1,12.136C106.266,39.652,106.61,44.134,103.163,47.513ZM99.025,27.171a5.3,5.3,0,0,0-4.413-1.862H90.13V45.1h4.482a5.128,5.128,0,0,0,4.413-1.862c1.1-1.379,1.31-3.517,1.31-8.137S100.129,28.55,99.025,27.171Z" transform="translate(-84.2 -19.793)" fill="#fff"/>
    <path id="Tracé_184" data-name="Tracé 184" d="M120.5,24.251V19.7h5.654v4.551Zm.069,26.065v-22.2h5.516V50.385h-5.516Z" transform="translate(-95.469 -19.7)" fill="#fff"/>
    <path id="Tracé_185" data-name="Tracé 185" d="M141.188,62.392c-3.448,0-5.792-.69-8.068-2.9l3.448-3.517a5.767,5.767,0,0,0,4.344,1.724c3.31,0,4.482-2.344,4.482-4.62V50.808a6.4,6.4,0,0,1-5.31,2.207,7.669,7.669,0,0,1-5.31-1.931c-2.069-2.069-2.276-4.965-2.276-8.826s.138-6.689,2.276-8.826a7.48,7.48,0,0,1,5.31-1.931,6.578,6.578,0,0,1,5.447,2.344V31.776h5.379V53.221C150.98,58.531,147.188,62.392,141.188,62.392Zm.552-25.927c-3.31,0-3.655,2.827-3.655,5.792s.345,5.792,3.655,5.792,3.655-2.827,3.655-5.792S145.05,36.465,141.74,36.465Z" transform="translate(-99.195 -23.363)" fill="#fff"/>
    <path id="Tracé_186" data-name="Tracé 186" d="M168.447,44.6a4.613,4.613,0,0,0,4.9,4.965,6.21,6.21,0,0,0,5.034-2.069l3.379,3.31a10.562,10.562,0,0,1-8.482,3.517C168.034,54.255,163,51.842,163,42.878c0-7.24,3.93-11.378,9.723-11.378,6.206,0,9.723,4.551,9.723,10.619V44.6Zm7.93-6.206a4.184,4.184,0,0,0-7.447,0,5.4,5.4,0,0,0-.483,2.413h8.482A6.872,6.872,0,0,0,176.377,38.4Z" transform="translate(-108.663 -23.363)" fill="#fff"/>
    <path id="Tracé_187" data-name="Tracé 187" d="M201.147,54.255c-3.517,0-6.689-.414-9.447-3.172l3.655-3.655a7.944,7.944,0,0,0,5.93,2.069c1.931,0,3.93-.621,3.93-2.276,0-1.1-.621-1.862-2.344-2.069l-3.517-.345c-4-.414-6.482-2.138-6.482-6.206,0-4.62,4.068-7.1,8.55-7.1,3.448,0,6.344.621,8.482,2.62l-3.448,3.448a7.685,7.685,0,0,0-5.172-1.517c-2.207,0-3.172,1.034-3.172,2.138,0,.827.345,1.724,2.276,1.931l3.517.345c4.413.414,6.62,2.758,6.62,6.551C210.594,51.911,206.387,54.255,201.147,54.255Z" transform="translate(-117.573 -23.363)" fill="#fff"/>
    <path id="Tracé_188" data-name="Tracé 188" d="M227.626,51.434c-4.551,0-6.482-3.172-6.482-6.344V34.057H218.8V29.851h2.344V23.3h5.516v6.551h3.93v4.206h-3.93V44.745c0,1.31.621,2,1.931,2h2v4.689Z" transform="translate(-125.986 -20.818)" fill="#fff"/>
  </g>
  <g id="Groupe_216" data-name="Groupe 216" transform="translate(164.114 13.377)">
    <path id="Tracé_189" data-name="Tracé 189" d="M248.136,50.361c-4.551,0-7.378-1.241-10.136-4l1.655-1.655a10.588,10.588,0,0,0,8.619,3.586c4.758,0,7.792-2.276,7.792-6.275a5.508,5.508,0,0,0-1.655-4.275c-1.1-.965-1.931-1.241-4.413-1.655l-3.517-.552a10.944,10.944,0,0,1-5.447-2.207,6.84,6.84,0,0,1-2.413-5.585c0-5.1,3.655-8.344,9.447-8.344a12.068,12.068,0,0,1,8.757,3.31l-1.517,1.517A9.834,9.834,0,0,0,247.93,21.4c-4.413,0-7.033,2.413-7.033,6.275a4.87,4.87,0,0,0,1.586,4,9.1,9.1,0,0,0,4.551,1.862l3.31.483c2.827.414,4.137.965,5.447,2a7.464,7.464,0,0,1,2.62,5.861C258.342,47.051,254.411,50.361,248.136,50.361Z" transform="translate(-238 -19.4)" fill="#fff"/>
    <path id="Tracé_190" data-name="Tracé 190" d="M278.333,54.8c-5.585,0-9.033-4-9.033-10.55s3.448-10.55,9.033-10.55c2.827,0,4.551.759,6.758,3.172l-1.517,1.379c-1.724-1.931-3.1-2.62-5.31-2.62a6.4,6.4,0,0,0-5.447,2.758c-1.034,1.517-1.379,3.1-1.379,5.861s.414,4.413,1.379,5.861a6.4,6.4,0,0,0,5.447,2.758c2.207,0,3.517-.621,5.31-2.62l1.517,1.379C282.884,54.042,281.16,54.8,278.333,54.8Z" transform="translate(-247.717 -23.839)" fill="#fff"/>
    <path id="Tracé_191" data-name="Tracé 191" d="M297,22.489V19.8h2.689v2.689Zm.207,27.72V29.661h2.207V50.209h-2.207Z" transform="translate(-256.316 -19.524)" fill="#fff"/>
    <path id="Tracé_192" data-name="Tracé 192" d="M307.707,44.764c0,5.241,2.344,8.137,6.689,8.137a7.2,7.2,0,0,0,5.654-2.482l1.655,1.31a9.381,9.381,0,0,1-7.447,3.172c-5.654,0-8.757-3.655-8.757-10.55,0-6.62,3.1-10.55,8.275-10.55,5.1,0,8.275,3.724,8.275,10.067v.965H307.707Zm11.447-5.654a5.812,5.812,0,0,0-10.619,0,11.24,11.24,0,0,0-.759,3.861h12.136A10.9,10.9,0,0,0,319.153,39.11Z" transform="translate(-258.955 -23.87)" fill="#fff"/>
    <path id="Tracé_193" data-name="Tracé 193" d="M347.153,54.525V41.768c0-4-2-6.137-5.654-6.137s-5.792,2.276-5.792,6.137V54.525H333.5V33.976h2.207v2.413a7.612,7.612,0,0,1,6.068-2.689,7.712,7.712,0,0,1,5.447,1.931,7.7,7.7,0,0,1,2.138,5.723v13.17h-2.207Z" transform="translate(-267.648 -23.839)" fill="#fff"/>
    <path id="Tracé_194" data-name="Tracé 194" d="M369.233,54.8c-5.585,0-9.033-4-9.033-10.55s3.448-10.55,9.033-10.55c2.827,0,4.551.759,6.758,3.172l-1.517,1.379c-1.724-1.931-3.1-2.62-5.31-2.62a6.4,6.4,0,0,0-5.447,2.758c-1.034,1.517-1.379,3.1-1.379,5.861s.414,4.413,1.379,5.861a6.4,6.4,0,0,0,5.447,2.758c2.207,0,3.517-.621,5.31-2.62l1.517,1.379C373.784,54.042,372.06,54.8,369.233,54.8Z" transform="translate(-275.937 -23.839)" fill="#fff"/>
    <path id="Tracé_195" data-name="Tracé 195" d="M385.707,44.764c0,5.241,2.344,8.137,6.689,8.137a7.2,7.2,0,0,0,5.654-2.482l1.655,1.31a9.381,9.381,0,0,1-7.447,3.172c-5.654,0-8.757-3.655-8.757-10.55,0-6.62,3.1-10.55,8.275-10.55,5.1,0,8.275,3.724,8.275,10.067v.965H385.707Zm11.447-5.654a5.812,5.812,0,0,0-10.619,0,11.24,11.24,0,0,0-.759,3.861h12.136A10.9,10.9,0,0,0,397.153,39.11Z" transform="translate(-283.17 -23.87)" fill="#fff"/>
  </g>
  <g id="Groupe_217" data-name="Groupe 217">
    <path id="Tracé_196" data-name="Tracé 196" d="M22.893,11.929a25.2,25.2,0,0,1,12.895,1.1C32.2,5.93,25.72,1.172,18.273,1.172A24.356,24.356,0,0,1,40.339,15.239,21.755,21.755,0,0,1,50.613,30a24.085,24.085,0,0,0,.414-4.482A25.513,25.513,0,0,0,0,25.513,25.239,25.239,0,0,0,2.344,36.2C1.517,24.686,10.343,14.067,22.893,11.929Z" fill="#fff"/>
    <path id="Tracé_197" data-name="Tracé 197" d="M42.66,25.088a25.213,25.213,0,0,1,1.1,7.24A24.337,24.337,0,0,1,19.423,56.669c11.171,0,20.273-10.895,20.273-24.341a29.96,29.96,0,0,0-1.448-9.1A29.05,29.05,0,0,0,24.594,22.4C12.113,24.467,3.08,33.5,3.494,43.085a25.478,25.478,0,0,0,48.2-6.275C50.8,31.776,47.418,27.639,42.66,25.088Z" transform="translate(-1.08 -6.815)" fill="#fff"/>
  </g>
  <g id="Groupe_218" data-name="Groupe 218" transform="translate(116.879 51.854)">
    <path id="Tracé_198" data-name="Tracé 198" d="M170.583,75.752v3.172h2.965v.552h-2.965v3.517H170.1V75.2h4v.552Z" transform="translate(-169.686 -75.2)" fill="#fff"/>
    <path id="Tracé_199" data-name="Tracé 199" d="M179.634,83.589a1.672,1.672,0,0,1-2.482,0,3.138,3.138,0,0,1-.552-2.069,3.036,3.036,0,0,1,.552-2.069,1.672,1.672,0,0,1,2.482,0,4.155,4.155,0,0,1,0,4.137Zm-.345-3.861a1.178,1.178,0,0,0-1.793,0,2.8,2.8,0,0,0-.414,1.724,2.4,2.4,0,0,0,.414,1.724,1.178,1.178,0,0,0,1.793,0,2.8,2.8,0,0,0,.414-1.724A2.4,2.4,0,0,0,179.289,79.727Z" transform="translate(-171.704 -76.349)" fill="#fff"/>
    <path id="Tracé_200" data-name="Tracé 200" d="M186.865,84.01V80.769c0-1.034-.414-1.586-1.241-1.586-.759,0-1.241.552-1.241,1.586V84.01H183.9V78.769h.483v.621a1.493,1.493,0,0,1,1.31-.69,1.664,1.664,0,0,1,1.172.483,2.276,2.276,0,0,1,.483,1.448v3.31h-.483Z" transform="translate(-173.97 -76.287)" fill="#fff"/>
    <path id="Tracé_201" data-name="Tracé 201" d="M193.965,82.923v-.69a1.426,1.426,0,0,1-1.31.759,1.5,1.5,0,0,1-1.1-.483A3.315,3.315,0,0,1,191,80.3a3.76,3.76,0,0,1,.552-2.207,1.389,1.389,0,0,1,1.1-.483,1.426,1.426,0,0,1,1.31.759V75.2h.483v7.723ZM192.724,78.1c-1.1,0-1.241,1.1-1.241,2.207s.138,2.207,1.241,2.207,1.241-1.1,1.241-2.207S193.758,78.1,192.724,78.1Z" transform="translate(-176.175 -75.2)" fill="#fff"/>
    <path id="Tracé_202" data-name="Tracé 202" d="M200.934,84.01v-.552a1.6,1.6,0,0,1-1.379.552,1.535,1.535,0,0,1-1.31-.483,1.694,1.694,0,0,1-.345-1.034,1.38,1.38,0,0,1,1.517-1.517h1.448v-.552c0-.827-.345-1.241-1.241-1.241a1.25,1.25,0,0,0-1.241.69l-.345-.345a1.576,1.576,0,0,1,1.586-.827,1.533,1.533,0,0,1,1.724,1.724V84.01Zm0-2.482h-1.379c-.759,0-1.1.345-1.1,1.034s.345,1.034,1.172,1.034a1.4,1.4,0,0,0,1.1-.414,1.607,1.607,0,0,0,.276-.965v-.69Z" transform="translate(-178.317 -76.287)" fill="#fff"/>
    <path id="Tracé_203" data-name="Tracé 203" d="M206.355,83.3c-.69,0-1.034-.552-1.034-1.379V78.469H204.7v-.414h.621V76.4h.483v1.655h1.034v.414H205.8v3.448c0,.552.207.9.69.9h.345V83.3Z" transform="translate(-180.428 -75.573)" fill="#fff"/>
    <path id="Tracé_204" data-name="Tracé 204" d="M209.7,75.89V75.2h.552v.69Zm0,7.033V77.682h.483v5.241Z" transform="translate(-181.98 -75.2)" fill="#fff"/>
    <path id="Tracé_205" data-name="Tracé 205" d="M215.534,83.589a1.672,1.672,0,0,1-2.482,0,3.138,3.138,0,0,1-.552-2.069,3.036,3.036,0,0,1,.552-2.069,1.672,1.672,0,0,1,2.482,0,4.155,4.155,0,0,1,0,4.137Zm-.276-3.861a1.178,1.178,0,0,0-1.793,0,2.8,2.8,0,0,0-.414,1.724,2.4,2.4,0,0,0,.414,1.724,1.178,1.178,0,0,0,1.793,0,3.8,3.8,0,0,0,0-3.448Z" transform="translate(-182.849 -76.349)" fill="#fff"/>
    <path id="Tracé_206" data-name="Tracé 206" d="M222.865,84.01V80.769c0-1.034-.414-1.586-1.241-1.586-.759,0-1.241.552-1.241,1.586V84.01H219.9V78.769h.483v.621a1.493,1.493,0,0,1,1.31-.69,1.664,1.664,0,0,1,1.172.483,2.276,2.276,0,0,1,.483,1.448v3.31h-.483Z" transform="translate(-185.146 -76.287)" fill="#fff"/>
    <path id="Tracé_207" data-name="Tracé 207" d="M233.265,82.923v-.69a1.426,1.426,0,0,1-1.31.759,1.5,1.5,0,0,1-1.1-.483A3.315,3.315,0,0,1,230.3,80.3a3.759,3.759,0,0,1,.552-2.207,1.389,1.389,0,0,1,1.1-.483,1.426,1.426,0,0,1,1.31.759V75.2h.483v7.723ZM232.024,78.1c-1.1,0-1.241,1.1-1.241,2.207s.138,2.207,1.241,2.207,1.241-1.1,1.241-2.207S233.127,78.1,232.024,78.1Z" transform="translate(-188.375 -75.2)" fill="#fff"/>
    <path id="Tracé_208" data-name="Tracé 208" d="M237.914,81.558c0,1.31.483,2.069,1.448,2.069a1.566,1.566,0,0,0,1.241-.621l.345.345a1.932,1.932,0,0,1-1.586.827q-1.862,0-1.862-2.689c0-1.655.69-2.689,1.793-2.689s1.793.965,1.793,2.551v.276h-3.172ZM240.4,80.11a1.241,1.241,0,0,0-1.172-.9,1.308,1.308,0,0,0-1.172.9,2.045,2.045,0,0,0-.138.965h2.62A2.045,2.045,0,0,0,240.4,80.11Z" transform="translate(-190.61 -76.318)" fill="#fff"/>
    <path id="Tracé_209" data-name="Tracé 209" d="M250.582,79.6a.9.9,0,0,0-.827-.414c-.759,0-1.172.759-1.172,1.586V84.01H248.1V78.769h.483v.69a1.478,1.478,0,0,1,1.31-.759,1.241,1.241,0,0,1,1.034.483Z" transform="translate(-193.901 -76.287)" fill="#fff"/>
    <path id="Tracé_210" data-name="Tracé 210" d="M253.214,81.558c0,1.31.483,2.069,1.448,2.069a1.566,1.566,0,0,0,1.241-.621l.345.345a1.932,1.932,0,0,1-1.586.827q-1.862,0-1.862-2.689c0-1.655.69-2.689,1.793-2.689s1.793.965,1.793,2.551v.276h-3.172Zm2.413-1.448a1.241,1.241,0,0,0-1.172-.9,1.308,1.308,0,0,0-1.172.9,2.045,2.045,0,0,0-.138.965h2.62A2.045,2.045,0,0,0,255.627,80.11Z" transform="translate(-195.36 -76.318)" fill="#fff"/>
    <path id="Tracé_211" data-name="Tracé 211" d="M261.531,84.079c-1.172,0-1.931-1.034-1.931-2.689s.759-2.689,1.931-2.689a1.631,1.631,0,0,1,1.448.827l-.345.345a1.355,1.355,0,0,0-1.172-.69,1.28,1.28,0,0,0-1.172.69,2.818,2.818,0,0,0-.276,1.517,3.142,3.142,0,0,0,.276,1.517,1.28,1.28,0,0,0,1.172.69c.483,0,.759-.138,1.172-.69l.345.345A1.562,1.562,0,0,1,261.531,84.079Z" transform="translate(-197.471 -76.287)" fill="#fff"/>
    <path id="Tracé_212" data-name="Tracé 212" d="M269.465,82.923V79.682c0-1.034-.414-1.586-1.241-1.586-.759,0-1.241.552-1.241,1.586v3.241H266.5V75.2h.483v3.1a1.493,1.493,0,0,1,1.31-.69c1.034,0,1.655.759,1.655,1.931v3.31h-.483Z" transform="translate(-199.613 -75.2)" fill="#fff"/>
    <path id="Tracé_213" data-name="Tracé 213" d="M274.014,81.558c0,1.31.483,2.069,1.448,2.069a1.566,1.566,0,0,0,1.241-.621l.345.345a1.932,1.932,0,0,1-1.586.827q-1.862,0-1.862-2.689c0-1.655.69-2.689,1.793-2.689s1.793.965,1.793,2.551v.276h-3.172ZM276.5,80.11a1.215,1.215,0,0,0-2.344,0,2.044,2.044,0,0,0-.138.965h2.62A3.591,3.591,0,0,0,276.5,80.11Z" transform="translate(-201.817 -76.318)" fill="#fff"/>
    <path id="Tracé_214" data-name="Tracé 214" d="M283.282,79.6a.9.9,0,0,0-.827-.414c-.759,0-1.172.759-1.172,1.586V84.01H280.8V78.769h.483v.69a1.478,1.478,0,0,1,1.31-.759,1.241,1.241,0,0,1,1.034.483Z" transform="translate(-204.053 -76.287)" fill="#fff"/>
    <path id="Tracé_215" data-name="Tracé 215" d="M287.331,84.079c-1.172,0-1.931-1.034-1.931-2.689s.759-2.689,1.931-2.689a1.631,1.631,0,0,1,1.448.827l-.345.345a1.355,1.355,0,0,0-1.172-.69,1.28,1.28,0,0,0-1.172.69,2.818,2.818,0,0,0-.276,1.517,3.142,3.142,0,0,0,.276,1.517,1.28,1.28,0,0,0,1.172.69c.483,0,.759-.138,1.172-.69l.345.345A1.631,1.631,0,0,1,287.331,84.079Z" transform="translate(-205.481 -76.287)" fill="#fff"/>
    <path id="Tracé_216" data-name="Tracé 216" d="M295.265,82.923V79.682c0-1.034-.414-1.586-1.241-1.586-.759,0-1.241.552-1.241,1.586v3.241H292.3V75.2h.483v3.1a1.493,1.493,0,0,1,1.31-.69c1.034,0,1.655.759,1.655,1.931v3.31h-.483Z" transform="translate(-207.623 -75.2)" fill="#fff"/>
    <path id="Tracé_217" data-name="Tracé 217" d="M299.814,81.558c0,1.31.483,2.069,1.448,2.069a1.566,1.566,0,0,0,1.241-.621l.345.345a1.932,1.932,0,0,1-1.586.827q-1.862,0-1.862-2.689c0-1.655.69-2.689,1.793-2.689s1.793.965,1.793,2.551v.276h-3.172ZM302.3,80.11a1.215,1.215,0,0,0-2.344,0,2.044,2.044,0,0,0-.138.965h2.62A3.592,3.592,0,0,0,302.3,80.11Z" transform="translate(-209.827 -76.318)" fill="#fff"/>
    <path id="Tracé_218" data-name="Tracé 218" d="M311.193,84.11a2.167,2.167,0,0,1-1.793-.759l.345-.345a1.781,1.781,0,0,0,1.448.621c.9,0,1.31-.345,1.31-1.034a.814.814,0,0,0-.827-.9l-.759-.069a1.248,1.248,0,0,1-1.31-1.379,1.416,1.416,0,0,1,1.586-1.448,2.459,2.459,0,0,1,1.586.552l-.345.345a1.925,1.925,0,0,0-1.241-.414c-.759,0-1.1.345-1.1,1.034,0,.552.276.827.9.9l.69.069c.759.069,1.31.345,1.31,1.379A1.645,1.645,0,0,1,311.193,84.11Z" transform="translate(-212.931 -76.318)" fill="#fff"/>
    <path id="Tracé_219" data-name="Tracé 219" d="M319.365,84.072v-.621a1.493,1.493,0,0,1-1.31.69,1.42,1.42,0,0,1-1.172-.483,2.276,2.276,0,0,1-.483-1.448V78.9h.483v3.241c0,1.034.414,1.586,1.241,1.586.759,0,1.241-.552,1.241-1.586V78.9h.483v5.241h-.483Z" transform="translate(-215.105 -76.349)" fill="#fff"/>
    <path id="Tracé_220" data-name="Tracé 220" d="M326.382,79.6a.9.9,0,0,0-.827-.414c-.759,0-1.172.759-1.172,1.586V84.01H323.9V78.769h.483v.69a1.478,1.478,0,0,1,1.31-.759,1.241,1.241,0,0,1,1.034.483Z" transform="translate(-217.433 -76.287)" fill="#fff"/>
    <path id="Tracé_221" data-name="Tracé 221" d="M333.734,82.923c-.69,0-1.034-.552-1.034-1.379V75.2h.483v6.344c0,.552.138.9.69.9h.345v.483Z" transform="translate(-220.165 -75.2)" fill="#fff"/>
    <path id="Tracé_222" data-name="Tracé 222" d="M336.214,81.558c0,1.31.483,2.069,1.448,2.069a1.566,1.566,0,0,0,1.241-.621l.345.345a1.932,1.932,0,0,1-1.586.827q-1.862,0-1.862-2.689c0-1.655.69-2.689,1.793-2.689s1.793.965,1.793,2.551v.276h-3.172ZM338.7,80.11a1.241,1.241,0,0,0-1.172-.9,1.308,1.308,0,0,0-1.172.9,2.044,2.044,0,0,0-.138.965h2.62A2.044,2.044,0,0,0,338.7,80.11Z" transform="translate(-221.127 -76.318)" fill="#fff"/>
    <path id="Tracé_223" data-name="Tracé 223" d="M344.193,84.11a2.167,2.167,0,0,1-1.793-.759l.345-.345a1.781,1.781,0,0,0,1.448.621c.9,0,1.31-.345,1.31-1.034a.814.814,0,0,0-.827-.9l-.759-.069a1.248,1.248,0,0,1-1.31-1.379,1.416,1.416,0,0,1,1.586-1.448,2.459,2.459,0,0,1,1.586.552l-.345.345a1.925,1.925,0,0,0-1.241-.414c-.759,0-1.1.345-1.1,1.034,0,.552.276.827.9.9l.69.069c.759.069,1.31.345,1.31,1.379C345.986,83.489,345.3,84.11,344.193,84.11Z" transform="translate(-223.176 -76.318)" fill="#fff"/>
    <path id="Tracé_224" data-name="Tracé 224" d="M358.861,83.979V80.738c0-1.034-.414-1.586-1.241-1.586-.758,0-1.241.552-1.241,1.448v3.31H355.9V80.669c0-1.034-.414-1.586-1.241-1.586s-1.241.552-1.241,1.586V83.91H353V78.669h.483v.621a1.667,1.667,0,0,1,1.31-.69,1.559,1.559,0,0,1,1.448.965,1.671,1.671,0,0,1,2.689-.483,2.276,2.276,0,0,1,.483,1.448v3.31h-.552Z" transform="translate(-226.467 -76.256)" fill="#fff"/>
    <path id="Tracé_225" data-name="Tracé 225" d="M367.034,84.01v-.552a1.6,1.6,0,0,1-1.379.552,1.535,1.535,0,0,1-1.31-.483A1.694,1.694,0,0,1,364,82.493a1.38,1.38,0,0,1,1.517-1.517h1.448v-.552c0-.827-.345-1.241-1.241-1.241a1.25,1.25,0,0,0-1.241.69l-.345-.345a1.576,1.576,0,0,1,1.586-.827,1.533,1.533,0,0,1,1.724,1.724V84.01Zm0-2.482h-1.379c-.759,0-1.1.345-1.1,1.034s.345,1.034,1.172,1.034a1.4,1.4,0,0,0,1.1-.414,1.607,1.607,0,0,0,.276-.965v-.69Z" transform="translate(-229.882 -76.287)" fill="#fff"/>
    <path id="Tracé_226" data-name="Tracé 226" d="M372.634,82.923c-.69,0-1.034-.552-1.034-1.379V75.2h.483v6.344c0,.552.138.9.69.9h.345v.483Z" transform="translate(-232.241 -75.2)" fill="#fff"/>
    <path id="Tracé_227" data-name="Tracé 227" d="M377.734,84.01v-.552a1.6,1.6,0,0,1-1.379.552,1.535,1.535,0,0,1-1.31-.483,1.694,1.694,0,0,1-.345-1.034,1.38,1.38,0,0,1,1.517-1.517h1.448v-.552c0-.827-.345-1.241-1.241-1.241a1.25,1.25,0,0,0-1.241.69l-.345-.345a1.576,1.576,0,0,1,1.586-.827,1.533,1.533,0,0,1,1.724,1.724V84.01Zm0-2.482h-1.379c-.759,0-1.1.345-1.1,1.034s.345,1.034,1.172,1.034a1.4,1.4,0,0,0,1.1-.414,1.607,1.607,0,0,0,.276-.965v-.69Z" transform="translate(-233.204 -76.287)" fill="#fff"/>
    <path id="Tracé_228" data-name="Tracé 228" d="M384.865,82.923v-.69a1.426,1.426,0,0,1-1.31.759,1.5,1.5,0,0,1-1.1-.483A3.315,3.315,0,0,1,381.9,80.3a3.76,3.76,0,0,1,.552-2.207,1.389,1.389,0,0,1,1.1-.483,1.426,1.426,0,0,1,1.31.759V75.2h.483v7.723ZM383.624,78.1c-1.1,0-1.241,1.1-1.241,2.207s.138,2.207,1.241,2.207,1.241-1.1,1.241-2.207S384.727,78.1,383.624,78.1Z" transform="translate(-235.439 -75.2)" fill="#fff"/>
    <path id="Tracé_229" data-name="Tracé 229" d="M389.3,75.89V75.2h.552v.69Zm.069,7.033V77.682h.483v5.241Z" transform="translate(-237.736 -75.2)" fill="#fff"/>
    <path id="Tracé_230" data-name="Tracé 230" d="M392.714,81.558c0,1.31.483,2.069,1.448,2.069a1.566,1.566,0,0,0,1.241-.621l.345.345a1.932,1.932,0,0,1-1.586.827q-1.862,0-1.862-2.689c0-1.655.69-2.689,1.793-2.689s1.793.965,1.793,2.551v.276h-3.172ZM395.2,80.11a1.215,1.215,0,0,0-2.345,0,2.045,2.045,0,0,0-.138.965h2.62A2.045,2.045,0,0,0,395.2,80.11Z" transform="translate(-238.667 -76.318)" fill="#fff"/>
    <path id="Tracé_231" data-name="Tracé 231" d="M400.693,84.11a2.167,2.167,0,0,1-1.793-.759l.345-.345a1.781,1.781,0,0,0,1.448.621c.9,0,1.31-.345,1.31-1.034a.814.814,0,0,0-.828-.9l-.758-.069a1.248,1.248,0,0,1-1.31-1.379,1.416,1.416,0,0,1,1.586-1.448,2.458,2.458,0,0,1,1.586.552l-.345.345a1.925,1.925,0,0,0-1.241-.414c-.759,0-1.1.345-1.1,1.034,0,.552.276.827.9.9l.69.069c.759.069,1.31.345,1.31,1.379C402.486,83.489,401.8,84.11,400.693,84.11Z" transform="translate(-240.716 -76.318)" fill="#fff"/>
    <path id="Tracé_232" data-name="Tracé 232" d="M172.465,101.654v-.69a1.426,1.426,0,0,1-1.31.759,1.5,1.5,0,0,1-1.1-.483,3.315,3.315,0,0,1-.552-2.207,3.76,3.76,0,0,1,.552-2.207,1.39,1.39,0,0,1,1.1-.483,1.426,1.426,0,0,1,1.31.759V94h.483v7.723h-.483ZM171.224,96.9c-1.1,0-1.241,1.1-1.241,2.207s.138,2.207,1.241,2.207,1.241-1.1,1.241-2.207S172.327,96.9,171.224,96.9Z" transform="translate(-169.5 -81.036)" fill="#fff"/>
    <path id="Tracé_233" data-name="Tracé 233" d="M177.114,100.258c0,1.31.483,2.069,1.448,2.069a1.566,1.566,0,0,0,1.241-.621l.345.345a1.932,1.932,0,0,1-1.586.827q-1.862,0-1.862-2.689c0-1.655.69-2.689,1.793-2.689s1.793.965,1.793,2.551v.276h-3.172Zm2.482-1.379a1.241,1.241,0,0,0-1.172-.9,1.308,1.308,0,0,0-1.172.9,2.045,2.045,0,0,0-.138.965h2.62A1.905,1.905,0,0,0,179.6,98.879Z" transform="translate(-171.735 -82.123)" fill="#fff"/>
    <path id="Tracé_234" data-name="Tracé 234" d="M188.334,101.654c-.69,0-1.034-.552-1.034-1.379V94h.483v6.344c0,.552.138.9.69.9h.345v.483h-.483Z" transform="translate(-175.026 -81.036)" fill="#fff"/>
    <path id="Tracé_235" data-name="Tracé 235" d="M191.1,95.655V94h.552v1.655Z" transform="translate(-176.206 -81.036)" fill="#fff"/>
    <path id="Tracé_236" data-name="Tracé 236" d="M196.834,102.741v-.552a1.6,1.6,0,0,1-1.379.552,1.535,1.535,0,0,1-1.31-.483,1.694,1.694,0,0,1-.345-1.034,1.38,1.38,0,0,1,1.517-1.517h1.448v-.483c0-.827-.345-1.241-1.241-1.241a1.25,1.25,0,0,0-1.241.69l-.345-.345a1.576,1.576,0,0,1,1.586-.827,1.533,1.533,0,0,1,1.724,1.724v3.586h-.414Zm0-2.482h-1.379c-.759,0-1.1.345-1.1,1.034s.345,1.034,1.172,1.034a1.4,1.4,0,0,0,1.1-.414,1.607,1.607,0,0,0,.276-.965v-.69Z" transform="translate(-177.044 -82.123)" fill="#fff"/>
    <path id="Tracé_237" data-name="Tracé 237" d="M204.2,102.4a1.389,1.389,0,0,1-1.1.483,1.426,1.426,0,0,1-1.31-.758v3.172H201.3V97.569h.483v.69a1.426,1.426,0,0,1,1.31-.758,1.5,1.5,0,0,1,1.1.483,3.315,3.315,0,0,1,.552,2.207A3.421,3.421,0,0,1,204.2,102.4Zm-1.1-4.413c-1.1,0-1.241,1.1-1.241,2.207s.138,2.207,1.241,2.207,1.241-1.1,1.241-2.207S204.127,97.983,203.093,97.983Z" transform="translate(-179.372 -82.123)" fill="#fff"/>
    <path id="Tracé_238" data-name="Tracé 238" d="M211.4,102.4a1.39,1.39,0,0,1-1.1.483,1.426,1.426,0,0,1-1.31-.758v3.172H208.5V97.569h.483v.69a1.426,1.426,0,0,1,1.31-.758,1.5,1.5,0,0,1,1.1.483,3.315,3.315,0,0,1,.552,2.207A3.9,3.9,0,0,1,211.4,102.4Zm-1.172-4.413c-1.1,0-1.241,1.1-1.241,2.207s.138,2.207,1.241,2.207,1.241-1.1,1.241-2.207S211.327,97.983,210.224,97.983Z" transform="translate(-181.607 -82.123)" fill="#fff"/>
    <path id="Tracé_239" data-name="Tracé 239" d="M218.034,102.741v-.552a1.6,1.6,0,0,1-1.379.552,1.535,1.535,0,0,1-1.31-.483,1.694,1.694,0,0,1-.345-1.034,1.38,1.38,0,0,1,1.517-1.517h1.448v-.483c0-.827-.345-1.241-1.241-1.241a1.25,1.25,0,0,0-1.241.69l-.345-.345a1.576,1.576,0,0,1,1.586-.827,1.533,1.533,0,0,1,1.724,1.724v3.586h-.414Zm0-2.482h-1.379c-.759,0-1.1.345-1.1,1.034s.345,1.034,1.172,1.034a1.4,1.4,0,0,0,1.1-.414,1.607,1.607,0,0,0,.276-.965v-.69Z" transform="translate(-183.625 -82.123)" fill="#fff"/>
    <path id="Tracé_240" data-name="Tracé 240" d="M225.082,98.4a.9.9,0,0,0-.827-.414c-.759,0-1.172.759-1.172,1.586v3.241H222.6V97.569h.483v.69a1.478,1.478,0,0,1,1.31-.759,1.241,1.241,0,0,1,1.034.483Z" transform="translate(-185.985 -82.123)" fill="#fff"/>
    <path id="Tracé_241" data-name="Tracé 241" d="M227.714,100.258c0,1.31.483,2.069,1.448,2.069a1.566,1.566,0,0,0,1.241-.621l.345.345a1.932,1.932,0,0,1-1.586.827q-1.862,0-1.862-2.689c0-1.655.69-2.689,1.793-2.689s1.793.965,1.793,2.551v.276h-3.172Zm2.413-1.379a1.241,1.241,0,0,0-1.172-.9,1.308,1.308,0,0,0-1.172.9,2.045,2.045,0,0,0-.138.965h2.62A1.906,1.906,0,0,0,230.127,98.879Z" transform="translate(-187.444 -82.123)" fill="#fff"/>
    <path id="Tracé_242" data-name="Tracé 242" d="M234.4,94.69V94h.552v.69Zm.069,6.964V96.413h.483v5.241Z" transform="translate(-189.648 -81.036)" fill="#fff"/>
    <path id="Tracé_243" data-name="Tracé 243" d="M238.734,101.654c-.69,0-1.034-.552-1.034-1.379V94h.483v6.344c0,.552.138.9.69.9h.345v.483h-.483Z" transform="translate(-190.672 -81.036)" fill="#fff"/>
    <path id="Tracé_244" data-name="Tracé 244" d="M247.465,101.654v-.69a1.426,1.426,0,0,1-1.31.759,1.5,1.5,0,0,1-1.1-.483,3.315,3.315,0,0,1-.552-2.207,3.76,3.76,0,0,1,.552-2.207,1.39,1.39,0,0,1,1.1-.483,1.426,1.426,0,0,1,1.31.759V94h.483v7.723h-.483ZM246.224,96.9c-1.1,0-1.241,1.1-1.241,2.207s.138,2.207,1.241,2.207,1.241-1.1,1.241-2.207S247.258,96.9,246.224,96.9Z" transform="translate(-192.783 -81.036)" fill="#fff"/>
    <path id="Tracé_245" data-name="Tracé 245" d="M251.9,94.69V94h.552v.69Zm.069,6.964V96.413h.483v5.241Z" transform="translate(-195.081 -81.036)" fill="#fff"/>
    <path id="Tracé_246" data-name="Tracé 246" d="M256.486,105.292a1.732,1.732,0,0,1-1.448-.69l.345-.345a1.473,1.473,0,0,0,1.172.552c.9,0,1.31-.759,1.31-1.793v-.9a1.426,1.426,0,0,1-1.31.759,1.5,1.5,0,0,1-1.1-.483,3.315,3.315,0,0,1-.552-2.207,3.76,3.76,0,0,1,.552-2.207,1.39,1.39,0,0,1,1.1-.483,1.426,1.426,0,0,1,1.31.759v-.69h.483v5.516C258.279,104.4,257.658,105.292,256.486,105.292Zm.069-7.309c-1.1,0-1.241,1.1-1.241,2.207s.138,2.207,1.241,2.207,1.241-1.1,1.241-2.207S257.658,97.983,256.555,97.983Z" transform="translate(-196.012 -82.123)" fill="#fff"/>
    <path id="Tracé_247" data-name="Tracé 247" d="M262.514,100.258c0,1.31.483,2.069,1.448,2.069a1.566,1.566,0,0,0,1.241-.621l.345.345a1.932,1.932,0,0,1-1.586.827q-1.862,0-1.862-2.689c0-1.655.69-2.689,1.793-2.689s1.793.965,1.793,2.551v.276h-3.172Zm2.413-1.379a1.215,1.215,0,0,0-2.345,0,2.045,2.045,0,0,0-.138.965h2.62A1.906,1.906,0,0,0,264.927,98.879Z" transform="translate(-198.247 -82.123)" fill="#fff"/>
    <path id="Tracé_248" data-name="Tracé 248" d="M270.493,102.81a2.167,2.167,0,0,1-1.793-.758l.345-.345a1.781,1.781,0,0,0,1.448.621c.9,0,1.31-.345,1.31-1.034a.814.814,0,0,0-.827-.9l-.759-.069a1.248,1.248,0,0,1-1.31-1.379,1.416,1.416,0,0,1,1.586-1.448,2.459,2.459,0,0,1,1.586.552l-.345.345a1.925,1.925,0,0,0-1.241-.414c-.759,0-1.1.345-1.1,1.034,0,.552.276.827.9.9l.69.069c.759.069,1.31.345,1.31,1.379A1.6,1.6,0,0,1,270.493,102.81Z" transform="translate(-200.296 -82.123)" fill="#fff"/>
    <path id="Tracé_249" data-name="Tracé 249" d="M276.655,102c-.69,0-1.034-.552-1.034-1.379V97.169H275v-.414h.621V95.1h.483v1.655h1.034v.414H276.1v3.448c0,.552.207.9.69.9h.345V102Z" transform="translate(-202.252 -81.378)" fill="#fff"/>
    <path id="Tracé_250" data-name="Tracé 250" d="M279.9,94.69V94h.552v.69Zm.069,6.964V96.413h.483v5.241Z" transform="translate(-203.773 -81.036)" fill="#fff"/>
    <path id="Tracé_251" data-name="Tracé 251" d="M283.6,96.9v4.827h-.483V96.9H282.5v-.414h.621v-1.1c0-.759.345-1.379,1.034-1.379h.414v.483h-.345c-.483,0-.69.345-.69.9v1.1h1.034V96.9Z" transform="translate(-204.58 -81.036)" fill="#fff"/>
    <path id="Tracé_252" data-name="Tracé 252" d="M290.714,100.258c0,1.31.483,2.069,1.448,2.069a1.566,1.566,0,0,0,1.241-.621l.345.345a1.932,1.932,0,0,1-1.586.827q-1.862,0-1.862-2.689c0-1.655.69-2.689,1.793-2.689s1.793.965,1.793,2.551v.276h-3.172Zm2.413-1.379a1.241,1.241,0,0,0-1.172-.9,1.309,1.309,0,0,0-1.172.9,2.044,2.044,0,0,0-.138.965h2.62A1.9,1.9,0,0,0,293.127,98.879Z" transform="translate(-207.002 -82.123)" fill="#fff"/>
    <path id="Tracé_253" data-name="Tracé 253" d="M298.455,102c-.69,0-1.034-.552-1.034-1.379V97.169H296.8v-.414h.621V95.1h.483v1.655h1.034v.414H297.9v3.448c0,.552.207.9.69.9h.345V102Z" transform="translate(-209.02 -81.378)" fill="#fff"/>
    <path id="Tracé_254" data-name="Tracé 254" d="M306.234,101.654c-.69,0-1.034-.552-1.034-1.379V94h.483v6.344c0,.552.138.9.69.9h.345v.483h-.483Z" transform="translate(-211.628 -81.036)" fill="#fff"/>
    <path id="Tracé_255" data-name="Tracé 255" d="M311.334,102.741v-.552a1.6,1.6,0,0,1-1.379.552,1.535,1.535,0,0,1-1.31-.483,1.694,1.694,0,0,1-.345-1.034,1.38,1.38,0,0,1,1.517-1.517h1.448v-.483c0-.827-.345-1.241-1.241-1.241a1.25,1.25,0,0,0-1.241.69l-.345-.345a1.576,1.576,0,0,1,1.586-.827,1.533,1.533,0,0,1,1.724,1.724v3.586h-.414Zm0-2.482h-1.379c-.759,0-1.1.345-1.1,1.034s.345,1.034,1.172,1.034a1.4,1.4,0,0,0,1.1-.414,1.607,1.607,0,0,0,.276-.965v-.69Z" transform="translate(-212.59 -82.123)" fill="#fff"/>
    <path id="Tracé_256" data-name="Tracé 256" d="M322.165,102.71V99.469c0-1.034-.414-1.586-1.241-1.586-.759,0-1.241.552-1.241,1.586v3.241H319.2V97.469h.483v.621a1.493,1.493,0,0,1,1.31-.69,1.664,1.664,0,0,1,1.172.483,2.276,2.276,0,0,1,.483,1.448v3.31h-.483Z" transform="translate(-215.974 -82.092)" fill="#fff"/>
    <path id="Tracé_257" data-name="Tracé 257" d="M329.465,102.772v-.621a1.493,1.493,0,0,1-1.31.69,1.42,1.42,0,0,1-1.172-.483,2.276,2.276,0,0,1-.483-1.448V97.6h.483v3.241c0,1.034.414,1.586,1.241,1.586.759,0,1.241-.552,1.241-1.586V97.6h.483v5.241h-.483Z" transform="translate(-218.24 -82.154)" fill="#fff"/>
    <path id="Tracé_258" data-name="Tracé 258" d="M334.955,102c-.69,0-1.034-.552-1.034-1.379V97.169H333.3v-.414h.621V95.1h.483v1.655h1.034v.414H334.4v3.448c0,.552.207.9.69.9h.345V102Z" transform="translate(-220.351 -81.378)" fill="#fff"/>
    <path id="Tracé_259" data-name="Tracé 259" d="M340.782,98.4a.9.9,0,0,0-.827-.414c-.759,0-1.172.759-1.172,1.586v3.241H338.3V97.569h.483v.69a1.478,1.478,0,0,1,1.31-.759,1.241,1.241,0,0,1,1.034.483Z" transform="translate(-221.903 -82.123)" fill="#fff"/>
    <path id="Tracé_260" data-name="Tracé 260" d="M343.6,94.69V94h.552v.69Zm.069,6.964V96.413h.483v5.241Z" transform="translate(-223.549 -81.036)" fill="#fff"/>
    <path id="Tracé_261" data-name="Tracé 261" d="M347.855,102c-.69,0-1.034-.552-1.034-1.379V97.169H346.2v-.414h.621V95.1h.483v1.655h1.034v.414H347.3v3.448c0,.552.207.9.69.9h.345V102Z" transform="translate(-224.356 -81.378)" fill="#fff"/>
    <path id="Tracé_262" data-name="Tracé 262" d="M351.1,94.69V94h.552v.69Zm.069,6.964V96.413h.483v5.241Z" transform="translate(-225.877 -81.036)" fill="#fff"/>
    <path id="Tracé_263" data-name="Tracé 263" d="M357.034,102.289a1.672,1.672,0,0,1-2.482,0A3.138,3.138,0,0,1,354,100.22a3.035,3.035,0,0,1,.552-2.069,1.672,1.672,0,0,1,2.482,0,4.155,4.155,0,0,1,0,4.137Zm-.276-3.861a1.178,1.178,0,0,0-1.793,0,2.8,2.8,0,0,0-.414,1.724,2.4,2.4,0,0,0,.414,1.724,1.178,1.178,0,0,0,1.793,0,2.8,2.8,0,0,0,.414-1.724A3.048,3.048,0,0,0,356.758,98.427Z" transform="translate(-226.777 -82.154)" fill="#fff"/>
    <path id="Tracé_264" data-name="Tracé 264" d="M364.365,102.71V99.469c0-1.034-.414-1.586-1.241-1.586-.759,0-1.241.552-1.241,1.586v3.241H361.4V97.469h.483v.621a1.493,1.493,0,0,1,1.31-.69,1.664,1.664,0,0,1,1.172.483,2.276,2.276,0,0,1,.483,1.448v3.31h-.483Z" transform="translate(-229.075 -82.092)" fill="#fff"/>
  </g>
</svg>
