<svg xmlns="http://www.w3.org/2000/svg" viewBox="0 0 112 28" width="112px" height="28px">
  <defs>
    <style>
      .cls-1 {
        fill: #4d4d4d;
      }

      .cls-2 {
        fill: #fff;
      }
    </style>
  </defs>
  <title>pictos</title>
  <g id="Calque_2" data-name="Calque 2">
    <g id="flask">
      <g id="flask-group">
        <circle id="circle" class="cls-1" cx="14" cy="14" r="14"/>
        <path id="flask-fa" class="cls-2" d="M20.55,18.53,17,12.74V8.1h.24a.73.73,0,0,0,.74-.73V6.88a.74.74,0,0,0-.74-.74H10.81a.74.74,0,0,0-.74.74v.49a.73.73,0,0,0,.74.73h.24v4.64l-3.6,5.79A2.18,2.18,0,0,0,9.3,21.86h9.4A2.18,2.18,0,0,0,20.55,18.53ZM11.36,16l1.48-2.39A1,1,0,0,0,13,13V8.1h2V13a1,1,0,0,0,.18.56L16.64,16Z"/>
      </g>
    </g>
    <g id="padlock">
      <g id="padlock-group">
        <circle id="circle-2" data-name="circle" class="cls-1" cx="42" cy="14" r="14"/>
        <path id="padlock-fa" class="cls-2" d="M47.36,12.59h-.73V10.4a4.63,4.63,0,0,0-9.26,0v2.19h-.73a1.46,1.46,0,0,0-1.46,1.46V19.9a1.46,1.46,0,0,0,1.46,1.46H47.36a1.46,1.46,0,0,0,1.46-1.46V14.05A1.46,1.46,0,0,0,47.36,12.59Zm-3.17,0H39.81V10.4a2.19,2.19,0,1,1,4.38,0Z"/>
      </g>
    </g>
    <g id="invoice">
      <g id="invoice-group">
        <circle id="circle-3" data-name="circle" class="cls-1" cx="70" cy="14" r="14"/>
        <path id="invoice-fa" class="cls-2" d="M71,9.94V5.84h-6a.72.72,0,0,0-.72.72v14a.73.73,0,0,0,.72.73H75.07a.73.73,0,0,0,.72-.73V10.67h-4.1A.73.73,0,0,1,71,9.94Zm1.93,7.12a.37.37,0,0,1-.37.36H67.47a.37.37,0,0,1-.37-.36v-.24a.37.37,0,0,1,.37-.36h5.06a.37.37,0,0,1,.37.36Zm0-1.93a.37.37,0,0,1-.37.36H67.47a.37.37,0,0,1-.37-.36v-.24a.37.37,0,0,1,.37-.36h5.06a.37.37,0,0,1,.37.36Zm0-2.17v.24a.37.37,0,0,1-.37.36H67.47a.37.37,0,0,1-.37-.36V13a.37.37,0,0,1,.37-.36h5.06A.37.37,0,0,1,72.9,13Zm2.89-3.44V9.7H71.93V5.84h.18a.76.76,0,0,1,.52.21l3,3A.69.69,0,0,1,75.79,9.52Z"/>
      </g>
    </g>
    <g id="euro">
      <g id="euro-group">
        <circle id="circle-4" data-name="circle" class="cls-1" cx="98" cy="14" r="14"/>
        <path id="euro-fa" class="cls-2" d="M101.87,19.26a.41.41,0,0,0-.49-.32,6.92,6.92,0,0,1-1.57.19,4.44,4.44,0,0,1-4.19-2.95h3.92a.42.42,0,0,0,.41-.32l.22-1a.42.42,0,0,0-.41-.5H95.13a7.9,7.9,0,0,1,0-1.46h5a.42.42,0,0,0,.41-.33l.22-1a.41.41,0,0,0-.4-.5H95.65a4.33,4.33,0,0,1,4.06-2.59,7.27,7.27,0,0,1,1.3.14.4.4,0,0,0,.48-.29l.42-1.53a.42.42,0,0,0-.33-.52,9.77,9.77,0,0,0-1.81-.18,7.36,7.36,0,0,0-7,5H91.58a.41.41,0,0,0-.42.41v1a.42.42,0,0,0,.42.41h.74a10.18,10.18,0,0,0,0,1.46h-.73a.41.41,0,0,0-.42.41v1a.41.41,0,0,0,.42.41h1a7.23,7.23,0,0,0,7.16,5.37,8.74,8.74,0,0,0,2.11-.27.42.42,0,0,0,.3-.48Z"/>
      </g>
    </g>
  </g>
</svg>
