<svg xmlns="http://www.w3.org/2000/svg" viewBox="0 0 76.84 22.3" width="84px" height="28px">
  <title>pictos-testathlon</title>
  <g id="Calque_2" data-name="Calque 2">
    <g id="Calque_2-2" data-name="Calque 2">
      <path id="running-solid" d="M11.83,4.18A2.09,2.09,0,1,0,9.74,2.09h0A2.1,2.1,0,0,0,11.83,4.18ZM4.94,13.81l-.64,1.5H1.39a1.39,1.39,0,0,0,0,2.78H4.76a2.07,2.07,0,0,0,1.92-1.26l.38-.89-.46-.28A4.11,4.11,0,0,1,5,13.81ZM16.7,9.74H14.79L13.65,7.43A4.16,4.16,0,0,0,11,5.21l-3.1-.92A4.14,4.14,0,0,0,4.36,5L2.63,6.36A1.39,1.39,0,0,0,4.3,8.59l0,0L6.05,7.25A1.32,1.32,0,0,1,7.15,7l.64.19L6.16,11a2.78,2.78,0,0,0,1.15,3.49L11,16.65,9.81,20.46a1.39,1.39,0,1,0,2.63.89.14.14,0,0,0,0-.06l1.38-4.4a2.09,2.09,0,0,0-.94-2.36L10.23,13l1.37-3.4.88,1.8a2.12,2.12,0,0,0,1.87,1.17H16.7a1.4,1.4,0,1,0,.07-2.79Z"/>
      <path id="bicycle-solid" d="M44.45,8.52A4.19,4.19,0,0,0,43,8.8l-2.51-4a.76.76,0,0,0-.66-.36H37.73a.51.51,0,0,0-.52.51v.52a.51.51,0,0,0,.52.51h1.63l.48.78H36.18V6.2a.51.51,0,0,0-.52-.51H32.84a.79.79,0,0,0-.79.79h0a.77.77,0,0,0,.77.76H34.4l-.95,1.53a4.13,4.13,0,1,0,2.49,5.28c0-.12.08-.24.11-.36h1.68a.78.78,0,0,0,.66-.37l2.77-4.48.48.78a4.13,4.13,0,0,0-1.33,3,4.18,4.18,0,0,0,4.09,4.12,4.13,4.13,0,0,0,.05-8.26ZM34,10.9a2.67,2.67,0,0,1,.63,1.24h-1.4Zm-1.9,4.33a2.58,2.58,0,1,1,.55-5.1L31.13,12.5a.78.78,0,0,0,.26,1.07.72.72,0,0,0,.4.12h2.63A2.59,2.59,0,0,1,32.05,15.23Zm5.25-3.09H36.15a4.11,4.11,0,0,0-1.37-2.58l.8-1.29H39.7Zm7,3.09A2.58,2.58,0,0,1,42.48,11l1.44,2.31a.52.52,0,0,0,.71.17l.44-.28a.51.51,0,0,0,.16-.71L43.8,10.15a2.58,2.58,0,1,1,.5,5.08Z"/>
      <g id="running-on-water">
        <g>
          <path id="Tracé_443" data-name="Tracé 443" d="M67.71,3.61A1.61,1.61,0,1,0,66.11,2,1.61,1.61,0,0,0,67.71,3.61ZM62.4,11.05l-.49,1.15H59.66a1.08,1.08,0,0,0,0,2.15h2.6a1.61,1.61,0,0,0,1.48-1l.29-.69-.35-.21a3.22,3.22,0,0,1-1.28-1.43Zm9.07-3.14H70l-.88-1.79a3.22,3.22,0,0,0-2.07-1.71L64.66,3.7A3.18,3.18,0,0,0,62,4.28l-1.33,1A1.07,1.07,0,1,0,61.92,7h0l1.34-1a1,1,0,0,1,.84-.21l.5.15L63.34,8.85a2.17,2.17,0,0,0,.88,2.7l2.86,1.69-.93,2.94a1.07,1.07,0,1,0,2,.64l1.06-3.39a1.6,1.6,0,0,0-.72-1.82l-2.05-1.22,1.05-2.62.68,1.39a1.61,1.61,0,0,0,1.44.9h1.81a1.08,1.08,0,1,0,0-2.15Z"/>
          <path id="Tracé_444" data-name="Tracé 444" d="M76.3,16.73h-.53a2.77,2.77,0,0,1-1.88-.6,1.67,1.67,0,0,0-1.07-.47h-.55a1.62,1.62,0,0,0-1.06.47,3.22,3.22,0,0,1-3.77,0,1.62,1.62,0,0,0-1.07-.47h-.54a1.62,1.62,0,0,0-1.07.47,3.2,3.2,0,0,1-3.76,0,1.62,1.62,0,0,0-1.07-.47h-.55a1.62,1.62,0,0,0-1.06.47,2.87,2.87,0,0,1-1.88.61H55.9a.53.53,0,0,0-.53.53v1.07a.54.54,0,0,0,.53.54h.54a5,5,0,0,0,3.22-1.07,5.38,5.38,0,0,0,6.44,0,5.4,5.4,0,0,0,6.45,0,5,5,0,0,0,3.22,1.07h.53a.54.54,0,0,0,.54-.54V17.27A.54.54,0,0,0,76.3,16.73Z"/>
        </g>
      </g>
    </g>
  </g>
</svg>
