<svg xmlns="http://www.w3.org/2000/svg" viewBox="0 0 48 24" width="48px" height="24px">
  <defs>
    <style>
      .cls-1 {
        fill: #fff;
      }
    </style>
  </defs>
  <title>search-pictos</title>
  <g id="Calque_2" data-name="Calque 2">
    <g id="Calque_1-2" data-name="Calque 1">
      <g id="Groupe_545" data-name="Groupe 545">
        <circle id="Ellipse_15" data-name="Ellipse 15" cx="12" cy="12" r="12"/>
        <path id="Tracé_111" data-name="Tracé 111" class="cls-1" d="M19.13,17.55,16.53,15a.55.55,0,0,0-.44-.18h-.43a5.45,5.45,0,1,0-.94.93v.43a.65.65,0,0,0,.18.44l2.6,2.6a.62.62,0,0,0,.89,0h0l.74-.74A.62.62,0,0,0,19.13,17.55Zm-7.74-2.78a3.34,3.34,0,1,1,3.34-3.34,3.34,3.34,0,0,1-3.34,3.34Z"/>
      </g>
      <g id="Groupe_545-2" data-name="Groupe 545">
        <circle id="Ellipse_15-2" data-name="Ellipse 15" class="cls-1" cx="36" cy="12" r="12"/>
        <path id="Tracé_111-2" data-name="Tracé 111" d="M43.13,17.55,40.53,15a.55.55,0,0,0-.44-.18h-.43a5.45,5.45,0,1,0-.94.93v.43a.65.65,0,0,0,.18.44l2.6,2.6a.62.62,0,0,0,.89,0h0l.74-.74A.62.62,0,0,0,43.13,17.55Zm-7.74-2.78a3.34,3.34,0,1,1,3.34-3.34,3.34,3.34,0,0,1-3.34,3.34Z"/>
      </g>
    </g>
  </g>
</svg>
