<svg xmlns="http://www.w3.org/2000/svg" xmlns:xlink="http://www.w3.org/1999/xlink" viewBox="0 0 407.49 90.95">
  <defs>
    <style>
      .cls-1 {
        fill: #fff;
      }

      .cls-2 {
        fill: url(#radial-gradient);
      }
    </style>
    <radialGradient id="radial-gradient" cx="37" cy="51.63" r="37" gradientUnits="userSpaceOnUse">
      <stop offset="0" stop-color="#fff"/>
      <stop offset="1" stop-color="#858585"/>
    </radialGradient>
  </defs>
  <title>digestscience-team-logo-nega</title>
  <g id="Calque_2" data-name="Calque 2">
    <g id="Calque_1-2" data-name="Calque 1">
      <g>
        <path class="cls-1" d="M111.71,74.54c-2.91,2.91-7.06,4.21-11.64,4.21H84.16V34.66h15.91c4.58,0,8.73,1.3,11.64,4.22,5,4.95,4.46,11,4.46,17.64S116.67,69.59,111.71,74.54Zm-6-29.47a7.68,7.68,0,0,0-6.44-2.73h-6.5V71.07h6.5a7.68,7.68,0,0,0,6.44-2.72c1.61-2,1.85-5.14,1.85-11.83S107.32,47.05,105.71,45.07Z"/>
        <path class="cls-1" d="M120.51,41V34.42h8.23V41Zm.12,37.77V46.49h8.05V78.75Z"/>
        <path class="cls-1" d="M145.09,91c-5,0-8.36-1-11.7-4.21l5-5.08a8.2,8.2,0,0,0,6.32,2.48c4.83,0,6.5-3.41,6.5-6.69V74.17a9.47,9.47,0,0,1-7.68,3.22,10.72,10.72,0,0,1-7.68-2.85c-3-3-3.28-7.18-3.28-12.82S132.83,52,135.86,49a10.87,10.87,0,0,1,7.74-2.85,9.45,9.45,0,0,1,7.87,3.41v-3h7.8V77.58C159.27,85.32,153.76,91,145.09,91Zm.8-37.58c-4.76,0-5.26,4.08-5.26,8.35s.5,8.43,5.26,8.43,5.33-4.15,5.33-8.43S150.66,53.37,145.89,53.37Z"/>
        <path class="cls-1" d="M170.91,65.13c0,4.15,2.54,7.18,7.06,7.18a9,9,0,0,0,7.31-3l4.89,4.77c-3.28,3.28-6.44,5.07-12.26,5.07-7.62,0-14.93-3.46-14.93-16.53,0-10.53,5.7-16.47,14.06-16.47,9,0,14.06,6.56,14.06,15.42v3.59Zm11.52-9a6,6,0,0,0-10.78,0,9,9,0,0,0-.74,3.47h12.26A9,9,0,0,0,182.43,56.15Z"/>
        <path class="cls-1" d="M205.4,79.12c-5.08,0-9.66-.55-13.75-4.64l5.27-5.26c2.66,2.66,6.13,3,8.6,3,2.79,0,5.7-.93,5.7-3.34,0-1.61-.87-2.73-3.41-3l-5.07-.5c-5.82-.56-9.42-3.1-9.42-9,0-6.69,5.89-10.28,12.45-10.28,5,0,9.23.87,12.32,3.78l-5,5c-1.86-1.67-4.71-2.16-7.49-2.16-3.22,0-4.59,1.48-4.59,3.09,0,1.18.5,2.54,3.35,2.79l5.08.49c6.37.62,9.59,4,9.59,9.48C219.08,75.72,213,79.12,205.4,79.12Z"/>
        <path class="cls-1" d="M231.59,78.75c-6.56,0-9.35-4.64-9.35-9.22v-16h-3.4V47.42h3.4V37.88h8v9.54H236v6.13h-5.7V69c0,1.86.87,2.91,2.79,2.91H236v6.81Z"/>
      </g>
      <g>
        <path class="cls-1" d="M252.67,78.91c-6.57,0-10.65-1.79-14.68-5.82l2.35-2.35c4,4,7.19,5.2,12.51,5.2,6.94,0,11.33-3.34,11.33-9.1a8,8,0,0,0-2.41-6.19c-1.61-1.37-2.79-1.8-6.38-2.36l-5.14-.8a15.34,15.34,0,0,1-7.86-3.22,10,10,0,0,1-3.47-8.11c0-7.37,5.26-12.08,13.69-12.08a17.44,17.44,0,0,1,12.69,4.77L263.13,41a14.3,14.3,0,0,0-10.71-4.09c-6.38,0-10.22,3.53-10.22,9.1a7.1,7.1,0,0,0,2.29,5.76,14.17,14.17,0,0,0,6.57,2.73l4.77.74c4.14.62,6,1.36,7.86,2.91a10.85,10.85,0,0,1,3.84,8.54C267.53,74.15,261.83,78.91,252.67,78.91Z"/>
        <path class="cls-1" d="M282.39,78.91c-8.11,0-13.13-5.82-13.13-15.29s5-15.3,13.13-15.3c4.09,0,6.62,1.06,9.85,4.59l-2.17,2c-2.54-2.85-4.52-3.78-7.68-3.78a9.25,9.25,0,0,0-7.93,4c-1.48,2.17-2,4.52-2,8.55s.56,6.38,2,8.54a9.26,9.26,0,0,0,7.93,4c3.16,0,5.14-.93,7.68-3.78l2.17,2C289,77.86,286.48,78.91,282.39,78.91Z"/>
        <path class="cls-1" d="M297,38.35v-3.9h3.9v3.9Zm.37,40.19V48.7h3.16V78.54Z"/>
        <path class="cls-1" d="M308.73,64.3c0,7.55,3.41,11.77,9.73,11.77,3.52,0,5.69-1.06,8.23-3.6L329,74.33c-3,3-5.82,4.58-10.77,4.58-8.24,0-12.69-5.32-12.69-15.29,0-9.6,4.45-15.3,11.95-15.3s12,5.45,12,14.56V64.3Zm16.54-8.17a8.48,8.48,0,0,0-15.48,0,13.75,13.75,0,0,0-1.06,5.63h17.59A13.76,13.76,0,0,0,325.27,56.13Z"/>
        <path class="cls-1" d="M353.32,78.54V60c0-5.76-2.91-8.92-8.24-8.92s-8.42,3.28-8.42,8.92V78.54H333.5V48.7h3.16v3.52a12.13,12.13,0,0,1,16.72-1,11.22,11.22,0,0,1,3.09,8.3V78.54Z"/>
        <path class="cls-1" d="M373.32,78.91c-8.11,0-13.13-5.82-13.13-15.29s5-15.3,13.13-15.3c4.08,0,6.62,1.06,9.84,4.59l-2.16,2c-2.54-2.85-4.52-3.78-7.68-3.78a9.24,9.24,0,0,0-7.93,4c-1.48,2.17-2,4.52-2,8.55s.56,6.38,2,8.54a9.25,9.25,0,0,0,7.93,4c3.16,0,5.14-.93,7.68-3.78l2.16,2C379.94,77.86,377.4,78.91,373.32,78.91Z"/>
        <path class="cls-1" d="M386.75,64.3c0,7.55,3.4,11.77,9.72,11.77,3.53,0,5.69-1.06,8.23-3.6l2.36,1.86c-3,3-5.83,4.58-10.78,4.58-8.23,0-12.69-5.32-12.69-15.29,0-9.6,4.46-15.3,12-15.3s11.95,5.45,11.95,14.56V64.3Zm16.53-8.17a8.48,8.48,0,0,0-15.48,0,13.6,13.6,0,0,0-1.05,5.63h17.58A13.76,13.76,0,0,0,403.28,56.13Z"/>
      </g>
      <g>
        <circle class="cls-2" cx="37" cy="51.63" r="37"/>
        <path class="cls-1" d="M26.51,16.29c16.31,0,29.54,15.82,29.54,35.34S42.82,87,26.51,87a35.35,35.35,0,0,0,0-70.69Z"/>
        <path class="cls-1" d="M34.08,37.26C53.33,34,71,43.42,73.45,58.25c-3-17.74-21-29.51-40.25-26.27S.76,52.22,3.74,70C1.25,55.13,14.83,40.49,34.08,37.26Z"/>
      </g>
      <g>
        <path class="cls-1" d="M92.58,4.64l-3.28,22H84.1l3.28-22h-7L81.11,0h19.13l-.7,4.64Z"/>
        <path class="cls-1" d="M100.49,26.65l4-26.65H122l-.7,4.64H109L108,10.89h10.52l-.7,4.64H107.35l-1,6.48h12.35L118,26.65Z"/>
        <path class="cls-1" d="M138.29,26.65l-.87-4.72H128l-2.32,4.72h-5.42L133.88,0H138l5.75,26.65ZM134.88,7.86l-4.82,9.69h6.63Z"/>
        <path class="cls-1" d="M165.94,26.65l2.32-15.53-6.6,10.1h-3.52l-3.62-10.1L152.2,26.65H147L151,0h5.13l4.81,14.41L170,0h5.13l-4,26.65Z"/>
      </g>
    </g>
  </g>
</svg>
