<svg xmlns="http://www.w3.org/2000/svg" viewBox="0 0 303.03 49.96">
  <defs>
    <style>
      .cls-1 {
        fill: #211856;
      }
    </style>
  </defs>
  <title>testathlon-logo</title>
  <g id="Calque_2" data-name="Calque 2">
    <g id="Groupe_25" data-name="Groupe 25">
      <path id="Tracé_81" data-name="Tracé 81" class="cls-1" d="M36.88,8.62V0H0V8.62H13.42V49.5h10V8.62Z"/>
      <path id="Tracé_82" data-name="Tracé 82" class="cls-1" d="M58.65,27.21H44.36a10.39,10.39,0,0,1,.87-4,7,7,0,0,1,12.54,0A10,10,0,0,1,58.65,27.21Zm9.24,6.43V29.45c0-10.32-5.92-18-16.38-18-9.74,0-16.38,6.93-16.38,19.19C35.13,45.91,43.64,50,52.53,50,59.31,50,63,47.86,66.82,44l-5.7-5.55A10.43,10.43,0,0,1,52.61,42c-5.27,0-8.23-3.53-8.23-8.37Z"/>
      <path id="Tracé_83" data-name="Tracé 83" class="cls-1" d="M99.48,37.67c0-6.35-3.76-10.32-11.19-11l-5.91-.58c-3.32-.29-3.91-1.88-3.91-3.25,0-1.87,1.59-3.6,5.35-3.6,3.24,0,6.56.57,8.73,2.52l5.77-5.84c-3.61-3.4-8.51-4.4-14.35-4.4-7.66,0-14.5,4.18-14.5,12,0,6.92,4.18,9.88,11,10.53l5.92.58c3,.29,4,1.58,4,3.46,0,2.82-3.4,3.9-6.64,3.9-2.89,0-6.93-.42-10-3.53l-6.13,6.14c4.76,4.76,10.09,5.41,16,5.41C92.41,49.94,99.48,46,99.48,37.67Z"/>
      <path id="Tracé_84" data-name="Tracé 84" class="cls-1" d="M119.81,49.5V41.88h-3.39c-2.24,0-3.25-1.18-3.25-3.26V21.29h6.64V14.43h-6.64V3.76H103.8V14.43h-4v6.86h4V39.18c0,5.13,3.24,10.32,10.9,10.32Z"/>
      <path id="Tracé_85" data-name="Tracé 85" class="cls-1" d="M143.54,35.65c0,2.31-.37,3.82-1.37,4.76-1.66,1.59-3.32,1.81-5.92,1.81-3.69,0-5.42-1.73-5.42-4.32s1.87-4.26,5.27-4.26h7.43v2Zm9.38,13.85V24.75c0-8.8-5.48-13.27-16-13.27-6.27,0-9.88,1.16-13.57,5.19l6,5.85c1.95-2.24,3.61-3.1,7.21-3.1,5,0,7,1.8,7,5.92v1.88h-8.87c-8.73,0-12.85,4.9-12.85,10.9a12.09,12.09,0,0,0,3.1,8.44c2.24,2.24,5.35,3.32,9.6,3.32s6.72-1.08,9.24-3.6v3.24h9.16Z"/>
      <path id="Tracé_86" data-name="Tracé 86" class="cls-1" d="M176.2,49.5V41.88h-3.39c-2.24,0-3.24-1.18-3.24-3.26V21.29h6.63V14.43h-6.63V3.76h-9.38V14.43h-4v6.86h4V39.18c0,5.13,3.24,10.32,10.9,10.32Z"/>
      <path id="Tracé_87" data-name="Tracé 87" class="cls-1" d="M211.86,49.5V26.08c0-7.65-4.32-13.22-12.55-13.22a12.71,12.71,0,0,0-9,3.76V0h-9.37V49.5h9.38V27.4c0-4.73,3.1-6.4,6.05-6.4s6.14,1.6,6.14,6.4V49.51h9.38Z"/>
      <path id="Tracé_88" data-name="Tracé 88" class="cls-1" d="M234.3,49.5V41.86h-3.6c-2.38,0-3.32-1.12-3.32-3.27V0H218V39.15c0,5.14,3.24,10.35,11,10.35Z"/>
      <path id="Tracé_89" data-name="Tracé 89" class="cls-1" d="M256,30.67c0,3.9-.22,7.22-2.16,9.17a5.94,5.94,0,0,1-4.4,1.65,5.77,5.77,0,0,1-4.33-1.65c-2-2-2.16-5.27-2.16-9.17s.21-7.14,2.16-9.09a5.82,5.82,0,0,1,4.33-1.66,6,6,0,0,1,4.4,1.66C255.76,23.53,256,26.78,256,30.67Zm9.38,0c0-6.78-.87-11-4.26-14.58a15.62,15.62,0,0,0-11.69-4.61c-5.56,0-9.31,2.16-11.62,4.61-3.39,3.54-4.26,7.8-4.26,14.58s.87,11.11,4.26,14.65a15.43,15.43,0,0,0,11.62,4.61,15.62,15.62,0,0,0,11.69-4.61c3.39-3.54,4.26-7.79,4.26-14.65Z"/>
      <path id="Tracé_90" data-name="Tracé 90" class="cls-1" d="M303,49.5v-24c0-4.11-.8-7.65-3.83-10.68a12.2,12.2,0,0,0-8.87-3.32,12.8,12.8,0,0,0-9.38,3.9V11.91h-9.16V49.5h9.38V26.78c0-5.13,3.31-6.85,6.27-6.85s6.21,1.73,6.21,6.85V49.51Z"/>
    </g>
  </g>
</svg>
