<svg xmlns="http://www.w3.org/2000/svg" viewBox="0 0 303.03 64.53">
  <defs>
    <style>
      .cls-1 {
        fill: #fff;
      }
    </style>
  </defs>
  <title>testathlon-logo-nega</title>
  <g id="Calque_2" data-name="Calque 2">
    <g id="Groupe_25" data-name="Groupe 25">
      <g>
        <path id="Tracé_81" data-name="Tracé 81" class="cls-1" d="M36.88,8.62V0H0V8.62H13.42V49.5h10V8.62Z"/>
        <path id="Tracé_82" data-name="Tracé 82" class="cls-1" d="M58.65,27.21H44.36a10.39,10.39,0,0,1,.87-4,7,7,0,0,1,12.54,0A10,10,0,0,1,58.65,27.21Zm9.24,6.43V29.45c0-10.32-5.92-18-16.38-18-9.74,0-16.38,6.93-16.38,19.19C35.13,45.91,43.64,50,52.53,50,59.31,50,63,47.86,66.82,44l-5.7-5.55A10.43,10.43,0,0,1,52.61,42c-5.27,0-8.23-3.53-8.23-8.37Z"/>
        <path id="Tracé_83" data-name="Tracé 83" class="cls-1" d="M99.48,37.67c0-6.35-3.76-10.32-11.19-11l-5.91-.58c-3.32-.29-3.91-1.88-3.91-3.25,0-1.87,1.59-3.6,5.35-3.6,3.24,0,6.56.57,8.73,2.52l5.77-5.84c-3.61-3.4-8.51-4.4-14.35-4.4-7.66,0-14.5,4.18-14.5,12,0,6.92,4.18,9.88,11,10.53l5.92.58c3,.29,4,1.58,4,3.46,0,2.82-3.4,3.9-6.64,3.9-2.89,0-6.93-.42-10-3.53l-6.13,6.14c4.76,4.76,10.09,5.41,16,5.41C92.41,49.94,99.48,46,99.48,37.67Z"/>
        <path id="Tracé_84" data-name="Tracé 84" class="cls-1" d="M119.81,49.5V41.88h-3.39c-2.24,0-3.25-1.18-3.25-3.26V21.29h6.64V14.43h-6.64V3.76H103.8V14.43h-4v6.86h4V39.18c0,5.13,3.24,10.32,10.9,10.32Z"/>
        <path id="Tracé_85" data-name="Tracé 85" class="cls-1" d="M143.54,35.65c0,2.31-.37,3.82-1.37,4.76-1.66,1.59-3.32,1.81-5.92,1.81-3.69,0-5.42-1.73-5.42-4.32s1.87-4.26,5.27-4.26h7.43v2Zm9.38,13.85V24.75c0-8.8-5.48-13.27-16-13.27-6.27,0-9.88,1.16-13.57,5.19l6,5.85c1.95-2.24,3.61-3.1,7.21-3.1,5,0,7,1.8,7,5.92v1.88h-8.87c-8.73,0-12.85,4.9-12.85,10.9a12.09,12.09,0,0,0,3.1,8.44c2.24,2.24,5.35,3.32,9.6,3.32s6.72-1.08,9.24-3.6v3.24h9.16Z"/>
        <path id="Tracé_86" data-name="Tracé 86" class="cls-1" d="M176.2,49.5V41.88h-3.39c-2.24,0-3.24-1.18-3.24-3.26V21.29h6.63V14.43h-6.63V3.76h-9.38V14.43h-4v6.86h4V39.18c0,5.13,3.24,10.32,10.9,10.32Z"/>
        <path id="Tracé_87" data-name="Tracé 87" class="cls-1" d="M211.86,49.5V26.08c0-7.65-4.32-13.22-12.55-13.22a12.71,12.71,0,0,0-9,3.76V0h-9.37V49.5h9.38V27.4c0-4.73,3.1-6.4,6.05-6.4s6.14,1.6,6.14,6.4V49.51h9.38Z"/>
        <path id="Tracé_88" data-name="Tracé 88" class="cls-1" d="M234.3,49.5V41.86h-3.6c-2.38,0-3.32-1.12-3.32-3.27V0H218V39.15c0,5.14,3.24,10.35,11,10.35Z"/>
        <path id="Tracé_89" data-name="Tracé 89" class="cls-1" d="M256,30.67c0,3.9-.22,7.22-2.16,9.17a5.94,5.94,0,0,1-4.4,1.65,5.77,5.77,0,0,1-4.33-1.65c-2-2-2.16-5.27-2.16-9.17s.21-7.14,2.16-9.09a5.82,5.82,0,0,1,4.33-1.66,6,6,0,0,1,4.4,1.66C255.76,23.53,256,26.78,256,30.67Zm9.38,0c0-6.78-.87-11-4.26-14.58a15.62,15.62,0,0,0-11.69-4.61c-5.56,0-9.31,2.16-11.62,4.61-3.39,3.54-4.26,7.8-4.26,14.58s.87,11.11,4.26,14.65a15.43,15.43,0,0,0,11.62,4.61,15.62,15.62,0,0,0,11.69-4.61c3.39-3.54,4.26-7.79,4.26-14.65Z"/>
        <path id="Tracé_90" data-name="Tracé 90" class="cls-1" d="M303,49.5v-24c0-4.11-.8-7.65-3.83-10.68a12.2,12.2,0,0,0-8.87-3.32,12.8,12.8,0,0,0-9.38,3.9V11.91h-9.16V49.5h9.38V26.78c0-5.13,3.31-6.85,6.27-6.85s6.21,1.73,6.21,6.85V49.51Z"/>
      </g>
      <g>
        <path class="cls-1" d="M39.79,64.38H37.57V56.06l-2.17.81V55.1l4.15-1.62h.24Z"/>
        <path class="cls-1" d="M48.84,60.27h1V62h-1v2.35H46.63V62H42.86l-.1-1.37,3.86-7.17h2.22Zm-3.93,0h1.72V56.63l-.05.08Z"/>
        <path class="cls-1" d="M52.82,59.37a2.07,2.07,0,0,1-1.55-.57,2.22,2.22,0,0,1-.55-1.62V56.8a2.61,2.61,0,0,1,.51-1.72,1.81,1.81,0,0,1,1.46-.6,1.73,1.73,0,0,1,1.4.56,2.68,2.68,0,0,1,.48,1.69v.6H52a1.28,1.28,0,0,0,.24.77.86.86,0,0,0,.66.24A1.46,1.46,0,0,0,54,57.92l.51.75a1.59,1.59,0,0,1-.69.5A2.45,2.45,0,0,1,52.82,59.37ZM52,56.47H53.3v-.11a1.32,1.32,0,0,0-.14-.64.52.52,0,0,0-.48-.22.56.56,0,0,0-.49.23A1.59,1.59,0,0,0,52,56.47Z"/>
        <path class="cls-1" d="M62.73,64.53a3.53,3.53,0,0,1-2.65-1,3.8,3.8,0,0,1-1-2.78v-.65a4.48,4.48,0,0,1,.88-3,3.1,3.1,0,0,1,2.51-1,2.9,2.9,0,0,1,2.39,1A4.56,4.56,0,0,1,65.73,60v1h-4.4a2.18,2.18,0,0,0,.41,1.32,1.46,1.46,0,0,0,1.13.41,2.58,2.58,0,0,0,1.86-.72l.86,1.28a2.78,2.78,0,0,1-1.18.87A4.2,4.2,0,0,1,62.73,64.53Zm-.08-11.64h2.49L63,55.21H61.12Zm-1.31,6.68h2.21v-.2a2.15,2.15,0,0,0-.25-1.1.86.86,0,0,0-.81-.37.94.94,0,0,0-.84.39A2.71,2.71,0,0,0,61.34,59.57Z"/>
        <path class="cls-1" d="M66.68,60.09a5.08,5.08,0,0,1,.7-3,2.37,2.37,0,0,1,2.05-1,2,2,0,0,1,1.62.81V52.89h2.23V64.38h-2l-.1-.82a2,2,0,0,1-1.75,1,2.34,2.34,0,0,1-2-1,5,5,0,0,1-.71-2.86Zm2.22.53a3.83,3.83,0,0,0,.26,1.67,1,1,0,0,0,.9.48,1.08,1.08,0,0,0,1-.56v-3.7a1.05,1.05,0,0,0-1-.6,1,1,0,0,0-.89.47,3.55,3.55,0,0,0-.28,1.68Z"/>
        <path class="cls-1" d="M74.9,54.19a1.06,1.06,0,0,1,.33-.8,1.36,1.36,0,0,1,1.75,0,1.06,1.06,0,0,1,.33.8A1.1,1.1,0,0,1,77,55a1.18,1.18,0,0,1-.88.32,1.16,1.16,0,0,1-.88-.32A1.07,1.07,0,0,1,74.9,54.19Zm2.33,10.19H75V56.29h2.22Z"/>
        <path class="cls-1" d="M81.51,54.3v2h1.13v1.59H81.51v4a1.17,1.17,0,0,0,.13.66.64.64,0,0,0,.53.18,1.86,1.86,0,0,0,.52-.06v1.65a3.72,3.72,0,0,1-1.22.2c-1.43,0-2.15-.78-2.16-2.35v-4.3h-1V56.29h1v-2Z"/>
        <path class="cls-1" d="M83.85,54.19a1.06,1.06,0,0,1,.33-.8,1.36,1.36,0,0,1,1.75,0,1.15,1.15,0,0,1,0,1.61,1.16,1.16,0,0,1-.88.32,1.18,1.18,0,0,1-.88-.32A1.1,1.1,0,0,1,83.85,54.19Zm2.32,10.19H84V56.29h2.22Z"/>
        <path class="cls-1" d="M87.62,60.07a4.27,4.27,0,0,1,.91-2.88,3.54,3.54,0,0,1,5,0,4.24,4.24,0,0,1,.91,2.9v.51a4.26,4.26,0,0,1-.9,2.89,3.57,3.57,0,0,1-5,0,4.25,4.25,0,0,1-.91-2.9Zm2.22.53c0,1.45.41,2.17,1.21,2.17s1.15-.6,1.21-1.81v-.89a3.23,3.23,0,0,0-.32-1.64,1,1,0,0,0-.9-.53,1,1,0,0,0-.88.53,3.34,3.34,0,0,0-.32,1.64Z"/>
        <path class="cls-1" d="M97.87,56.29l.06.8a2.38,2.38,0,0,1,2-1c1.45,0,2.2,1,2.24,2.92v5.32H99.91V59.22a1.84,1.84,0,0,0-.21-1,.89.89,0,0,0-.76-.31,1,1,0,0,0-.93.59v5.88H95.79V56.29Z"/>
        <path class="cls-1" d="M107.6,57.19a1.09,1.09,0,0,1,.36-.84,1.28,1.28,0,0,1,.92-.33,1.36,1.36,0,0,1,.92.32,1.07,1.07,0,0,1,.37.85,1,1,0,0,1-.37.84,1.37,1.37,0,0,1-.92.32A1.33,1.33,0,0,1,108,58,1.05,1.05,0,0,1,107.6,57.19Zm0,6.11a1.08,1.08,0,0,1,.36-.83,1.28,1.28,0,0,1,.92-.33,1.36,1.36,0,0,1,.92.32,1.15,1.15,0,0,1,0,1.69,1.37,1.37,0,0,1-.92.31,1.32,1.32,0,0,1-.92-.32A1.06,1.06,0,0,1,107.6,63.3Z"/>
        <path class="cls-1" d="M119.23,62.21a.63.63,0,0,0-.27-.49,5.08,5.08,0,0,0-1.2-.62,5,5,0,0,1-1.88-1.1,2,2,0,0,1-.51-1.41,2.21,2.21,0,0,1,.8-1.76,3.13,3.13,0,0,1,2.12-.69,3.37,3.37,0,0,1,2.22.69,2.26,2.26,0,0,1,.84,1.84h-2.21c0-.65-.29-1-.86-1a.83.83,0,0,0-.58.21.75.75,0,0,0-.22.58.61.61,0,0,0,.25.48,5.47,5.47,0,0,0,1.17.58,4.87,4.87,0,0,1,1.91,1.07,2.26,2.26,0,0,1-.29,3.26,4.06,4.06,0,0,1-3.87.31,2.7,2.7,0,0,1-1.12-1,2.52,2.52,0,0,1-.4-1.34h2.1a1.25,1.25,0,0,0,.27.83,1.1,1.1,0,0,0,.83.27C118.93,63,119.23,62.73,119.23,62.21Z"/>
        <path class="cls-1" d="M126.76,64.38a2.79,2.79,0,0,1-.18-.63,1.93,1.93,0,0,1-1.61.78,2.41,2.41,0,0,1-1.76-.67,2.3,2.3,0,0,1-.7-1.74,2.41,2.41,0,0,1,.84-2,3.8,3.8,0,0,1,2.45-.71h.67v-.65a1.17,1.17,0,0,0-.2-.77.72.72,0,0,0-.57-.23c-.55,0-.83.31-.83.93h-2.21a2.31,2.31,0,0,1,.88-1.85,3.35,3.35,0,0,1,2.22-.73,3.11,3.11,0,0,1,2.16.69,2.56,2.56,0,0,1,.76,2v3.81a3.86,3.86,0,0,0,.31,1.64v.12Zm-1.3-1.51a1.32,1.32,0,0,0,.62-.14,1.1,1.1,0,0,0,.39-.34V60.71h-.53a1.16,1.16,0,0,0-.89.34,1.28,1.28,0,0,0-.32.92C124.73,62.57,125,62.87,125.46,62.87Z"/>
        <path class="cls-1" d="M132.36,56.29l.06.75a2.42,2.42,0,0,1,2-.9,1.82,1.82,0,0,1,1.79,1.09,2.33,2.33,0,0,1,2.07-1.09c1.48,0,2.24,1,2.27,2.94v5.3H138.3V59.21a1.83,1.83,0,0,0-.2-1,.77.77,0,0,0-.69-.3,1,1,0,0,0-.92.73l0,.25v5.49H134.3V59.23a2,2,0,0,0-.2-1,.77.77,0,0,0-.7-.31,1,1,0,0,0-.9.59v5.88h-2.21V56.29Z"/>
        <path class="cls-1" d="M145.56,64.53a3.57,3.57,0,0,1-2.66-1,3.84,3.84,0,0,1-1-2.78v-.65a4.42,4.42,0,0,1,.88-3,3.1,3.1,0,0,1,2.5-1,2.91,2.91,0,0,1,2.4,1,4.5,4.5,0,0,1,.82,2.89v1h-4.4a2.17,2.17,0,0,0,.42,1.32,1.44,1.44,0,0,0,1.13.41,2.54,2.54,0,0,0,1.85-.72l.87,1.28a2.78,2.78,0,0,1-1.18.87A4.2,4.2,0,0,1,145.56,64.53Zm-1.39-5h2.21v-.2a2.15,2.15,0,0,0-.25-1.1.87.87,0,0,0-.81-.37.93.93,0,0,0-.84.39A2.59,2.59,0,0,0,144.17,59.57Z"/>
        <path class="cls-1" d="M149.51,60.09a5.08,5.08,0,0,1,.7-3,2.37,2.37,0,0,1,2-1,2,2,0,0,1,1.62.81V52.89h2.23V64.38h-2l-.1-.82a2.06,2.06,0,0,1-1.75,1,2.34,2.34,0,0,1-2-1,4.92,4.92,0,0,1-.71-2.86Zm2.22.53a3.69,3.69,0,0,0,.26,1.67,1,1,0,0,0,.9.48,1.08,1.08,0,0,0,1-.56v-3.7a1.06,1.06,0,0,0-1-.6,1,1,0,0,0-.89.47,3.55,3.55,0,0,0-.28,1.68Z"/>
        <path class="cls-1" d="M157.73,54.19a1.06,1.06,0,0,1,.33-.8,1.36,1.36,0,0,1,1.75,0,1.06,1.06,0,0,1,.33.8,1.1,1.1,0,0,1-.32.81,1.18,1.18,0,0,1-.88.32,1.16,1.16,0,0,1-.88-.32A1.07,1.07,0,0,1,157.73,54.19Zm2.32,10.19h-2.22V56.29h2.22Z"/>
        <path class="cls-1" d="M170.26,64.38H168V56.06l-2.17.81V55.1L170,53.48h.24Z"/>
        <path class="cls-1" d="M180.19,64.38h-6.71V62.89l3.08-3.75a7.59,7.59,0,0,0,.86-1.37,2.54,2.54,0,0,0,.28-1.12,2.07,2.07,0,0,0-.26-1.14.85.85,0,0,0-.75-.41,1,1,0,0,0-.86.48,2.44,2.44,0,0,0-.32,1.34H173.3a3.92,3.92,0,0,1,.43-1.83A3.16,3.16,0,0,1,175,53.8a3.49,3.49,0,0,1,1.78-.46,3.27,3.27,0,0,1,2.36.81,3,3,0,0,1,.84,2.28,4.24,4.24,0,0,1-.47,1.87,11.48,11.48,0,0,1-1.68,2.33l-1.46,2h3.87Z"/>
        <path class="cls-1" d="M185.07,60.07a4.22,4.22,0,0,1,.91-2.88,3.13,3.13,0,0,1,2.5-1,3.17,3.17,0,0,1,2.53,1,4.28,4.28,0,0,1,.9,2.9v.51a4.26,4.26,0,0,1-.9,2.89,3.13,3.13,0,0,1-2.51,1,3.19,3.19,0,0,1-2.53-1,4.3,4.3,0,0,1-.9-2.9Zm2.22.53c0,1.45.4,2.17,1.21,2.17s1.14-.6,1.2-1.81v-.89a3.34,3.34,0,0,0-.32-1.64,1,1,0,0,0-.91-.53,1,1,0,0,0-.88.53,3.36,3.36,0,0,0-.31,1.64Z"/>
        <path class="cls-1" d="M196.34,62.77c.64,0,1-.39,1-1.19h2.08a3,3,0,0,1-.85,2.14,3,3,0,0,1-2.16.81,3.13,3.13,0,0,1-2.49-1,4.23,4.23,0,0,1-.88-2.87v-.64a4.37,4.37,0,0,1,.85-2.91,3.09,3.09,0,0,1,2.5-1,3,3,0,0,1,2.21.83,3.29,3.29,0,0,1,.82,2.34h-2.08a2,2,0,0,0-.24-1.05.82.82,0,0,0-.75-.36.89.89,0,0,0-.82.39,3.16,3.16,0,0,0-.27,1.52v.82a6.88,6.88,0,0,0,.1,1.38,1,1,0,0,0,.34.58A1.06,1.06,0,0,0,196.34,62.77Z"/>
        <path class="cls-1" d="M203.22,54.3v2h1.13v1.59h-1.13v4a1.17,1.17,0,0,0,.13.66.65.65,0,0,0,.53.18,1.93,1.93,0,0,0,.53-.06l0,1.65a3.72,3.72,0,0,1-1.22.2c-1.43,0-2.15-.78-2.16-2.35v-4.3h-1V56.29h1v-2Z"/>
        <path class="cls-1" d="M205.07,60.07a4.22,4.22,0,0,1,.91-2.88,3.13,3.13,0,0,1,2.5-1,3.17,3.17,0,0,1,2.53,1,4.28,4.28,0,0,1,.9,2.9v.51a4.26,4.26,0,0,1-.9,2.89,3.13,3.13,0,0,1-2.51,1,3.19,3.19,0,0,1-2.53-1,4.3,4.3,0,0,1-.9-2.9Zm2.22.53c0,1.45.4,2.17,1.21,2.17s1.14-.6,1.2-1.81v-.89a3.34,3.34,0,0,0-.32-1.64,1,1,0,0,0-.91-.53,1,1,0,0,0-.88.53,3.36,3.36,0,0,0-.31,1.64Z"/>
        <path class="cls-1" d="M219.88,60.6a5.44,5.44,0,0,1-.65,2.95,2.33,2.33,0,0,1-2.07,1,2,2,0,0,1-1.76-1l-.07.8h-2V52.89h2.21V57a2,2,0,0,1,1.65-.81,2.32,2.32,0,0,1,2.06,1,5.18,5.18,0,0,1,.67,2.86Zm-2.21-.53a3.82,3.82,0,0,0-.26-1.72,1,1,0,0,0-.9-.44,1.06,1.06,0,0,0-1,.61v3.69a1.07,1.07,0,0,0,1,.56,1,1,0,0,0,.88-.39,3.42,3.42,0,0,0,.26-1.54Z"/>
        <path class="cls-1" d="M225.38,58.33l-.73-.06a1.21,1.21,0,0,0-1.23.76v5.35H221.2V56.29h2.09l.06.87a1.6,1.6,0,0,1,1.45-1,1.53,1.53,0,0,1,.61.1Z"/>
        <path class="cls-1" d="M229.78,64.53a3.55,3.55,0,0,1-2.66-1,3.84,3.84,0,0,1-1-2.78v-.65a4.42,4.42,0,0,1,.88-3,3.08,3.08,0,0,1,2.5-1,2.91,2.91,0,0,1,2.4,1,4.5,4.5,0,0,1,.82,2.89v1h-4.4a2.17,2.17,0,0,0,.42,1.32,1.44,1.44,0,0,0,1.13.41,2.54,2.54,0,0,0,1.85-.72l.87,1.28a2.78,2.78,0,0,1-1.18.87A4.27,4.27,0,0,1,229.78,64.53Zm-1.39-5h2.21v-.2a2.15,2.15,0,0,0-.25-1.1.88.88,0,0,0-.81-.37.93.93,0,0,0-.84.39A2.59,2.59,0,0,0,228.39,59.57Z"/>
        <path class="cls-1" d="M244.35,64.38h-6.7V62.89l3.08-3.75a8.2,8.2,0,0,0,.86-1.37,2.68,2.68,0,0,0,.28-1.12,2.07,2.07,0,0,0-.27-1.14.84.84,0,0,0-.75-.41,1,1,0,0,0-.85.48,2.35,2.35,0,0,0-.32,1.34h-2.22a3.92,3.92,0,0,1,.43-1.83,3.23,3.23,0,0,1,1.22-1.29,3.55,3.55,0,0,1,1.78-.46,3.25,3.25,0,0,1,2.36.81,3,3,0,0,1,.84,2.28,4.22,4.22,0,0,1-.46,1.87,11.21,11.21,0,0,1-1.69,2.33l-1.46,2h3.87Z"/>
        <path class="cls-1" d="M252.35,59.88a5.93,5.93,0,0,1-.85,3.46,3.11,3.11,0,0,1-4.87,0,5.71,5.71,0,0,1-.89-3.33V58a5.92,5.92,0,0,1,.85-3.44,3.11,3.11,0,0,1,4.89,0,5.79,5.79,0,0,1,.87,3.38Zm-2.22-2.21a5.54,5.54,0,0,0-.26-1.93.88.88,0,0,0-.83-.64c-.71,0-1.07.78-1.1,2.36v2.71a5.35,5.35,0,0,0,.27,2,.89.89,0,0,0,.84.64.85.85,0,0,0,.8-.6,4.88,4.88,0,0,0,.28-1.84Z"/>
        <path class="cls-1" d="M258.7,64.38h-2.22V56.06l-2.16.81V55.1l4.15-1.62h.23Z"/>
        <path class="cls-1" d="M266.22,60.17a2.16,2.16,0,0,1-1.54.69,2.38,2.38,0,0,1-2-1,4.34,4.34,0,0,1-.75-2.67,4.61,4.61,0,0,1,.42-2,3.26,3.26,0,0,1,1.18-1.38,3,3,0,0,1,1.68-.5,2.8,2.8,0,0,1,1.71.55,3.48,3.48,0,0,1,1.17,1.57,6.23,6.23,0,0,1,.41,2.32v.77a6.73,6.73,0,0,1-1.28,4.35,4.49,4.49,0,0,1-3.62,1.59h-.23V62.67h.15a2.74,2.74,0,0,0,1.95-.64A3,3,0,0,0,266.22,60.17Zm-1-1c.43,0,.76-.28,1-.84v-1a3.73,3.73,0,0,0-.31-1.68c-.2-.41-.46-.61-.78-.61a.87.87,0,0,0-.77.6,3.26,3.26,0,0,0-.3,1.47,3,3,0,0,0,.31,1.49A.93.93,0,0,0,265.24,59.2Z"/>
      </g>
    </g>
  </g>
</svg>
